<?xml version="1.0" standalone="no"?>
<!DOCTYPE svg PUBLIC "-//W3C//DTD SVG 20010904//EN"
 "http://www.w3.org/TR/2001/REC-SVG-20010904/DTD/svg10.dtd">
<svg version="1.0" xmlns="http://www.w3.org/2000/svg"
 width="736.000000pt" height="1041.000000pt" viewBox="0 0 736.000000 1041.000000"
 preserveAspectRatio="xMidYMid meet">
<metadata>
Created by potrace 1.16, written by Peter Selinger 2001-2019
</metadata>
<g transform="translate(0.000000,1041.000000) scale(0.100000,-0.100000)"
fill="#000000" stroke="none">
<path d="M1770 9903 c6 -23 138 -457 143 -473 1 -3 -8 -18 -20 -34 -20 -25
-44 -34 -190 -71 -93 -24 -186 -50 -209 -58 l-40 -15 -112 157 c-159 223 -201
274 -240 285 -18 5 -35 6 -38 3 -3 -3 1 -190 10 -415 13 -321 13 -417 4 -439
-7 -18 -13 -111 -16 -255 l-4 -228 45 -107 c25 -60 60 -163 77 -231 27 -105
84 -250 135 -341 7 -14 85 -129 174 -256 l160 -232 108 -12 c133 -15 157 -27
198 -102 12 -23 12 -27 -3 -41 -9 -8 -43 -47 -75 -85 -55 -67 -73 -83 -173
-146 -29 -18 -48 -41 -63 -74 -13 -26 -26 -55 -30 -63 -4 -8 -50 -43 -101 -77
-51 -34 -104 -72 -117 -85 -32 -30 -263 -368 -296 -433 -35 -71 -72 -194 -102
-341 -25 -123 -28 -180 -5 -93 52 195 139 353 185 335 11 -4 15 -2 12 6 -2 7
-20 13 -40 13 -21 0 -37 3 -37 8 0 6 78 67 138 107 16 10 27 34 38 79 20 90
60 158 106 184 36 21 44 37 21 44 -16 6 -71 -45 -98 -91 -13 -22 -31 -68 -40
-101 -8 -33 -20 -62 -27 -64 -6 -2 -32 -22 -57 -45 l-45 -41 39 70 c43 78 73
122 189 277 80 107 81 108 153 134 65 24 74 31 93 68 11 23 20 50 20 60 0 23
23 67 46 88 11 9 41 19 67 23 45 7 52 13 125 98 53 62 78 85 80 73 2 -10 -28
-51 -73 -102 -43 -47 -76 -86 -74 -88 2 -2 40 22 84 54 77 55 85 59 194 79
104 20 115 21 137 6 13 -8 24 -19 24 -23 0 -4 7 -52 15 -107 7 -55 13 -100 12
-101 -1 -1 -83 -42 -182 -91 -426 -213 -468 -243 -640 -453 -43 -52 -80 -97
-83 -100 -11 -12 12 50 45 117 43 89 126 171 215 213 35 17 68 30 75 30 6 0
24 24 41 53 70 124 172 234 280 304 47 30 51 36 37 49 -13 14 -21 11 -72 -23
-114 -74 -304 -287 -278 -311 4 -4 10 -2 12 4 2 6 10 20 18 30 8 11 5 -3 -6
-31 -20 -48 -25 -52 -108 -90 -67 -31 -101 -55 -156 -110 -62 -61 -74 -79 -95
-142 -13 -40 -25 -72 -27 -70 -1 2 5 38 14 80 l17 77 82 72 c53 46 112 86 161
109 43 21 69 38 58 38 -11 1 -61 -20 -112 -45 -73 -36 -112 -64 -183 -132
l-91 -87 -9 -79 c-11 -87 -28 -122 -66 -136 -28 -11 -31 -32 -8 -51 11 -9 14
-23 11 -46 -8 -50 -97 -224 -181 -358 -70 -110 -98 -166 -60 -119 12 15 15 16
10 2 -21 -67 -18 -87 20 -157 l38 -70 -22 -670 c-18 -543 -25 -676 -38 -706
-8 -21 -20 -100 -26 -180 -13 -155 -7 -142 -70 -173 -5 -2 -8 3 -8 12 0 20
-10 20 -102 1 -117 -25 -111 -21 -105 -70 4 -24 22 -114 42 -202 20 -87 47
-208 60 -269 l25 -112 -46 -123 c-78 -215 -110 -281 -155 -312 -74 -53 -132
-173 -101 -210 9 -10 0 -22 -38 -51 -72 -55 -263 -257 -321 -340 -47 -66 -50
-74 -46 -119 3 -36 12 -56 34 -80 17 -18 49 -60 72 -94 26 -39 46 -60 55 -57
9 3 15 -5 19 -24 3 -16 24 -52 47 -80 32 -42 46 -52 70 -52 23 0 30 -5 30 -19
0 -40 32 -60 108 -71 40 -6 85 -16 100 -24 44 -23 93 -27 147 -13 39 10 51 18
55 38 4 15 9 -4 14 -55 16 -169 98 -622 116 -640 22 -22 21 14 -9 206 -39 256
-51 361 -51 466 0 78 2 85 35 133 39 57 42 55 20 -17 -25 -82 -28 -170 -11
-304 16 -121 87 -435 107 -472 9 -16 21 -18 87 -16 l77 3 3 395 c2 231 -1 468
-8 570 -11 159 -10 193 10 375 23 224 34 275 55 275 20 0 19 12 -4 41 -10 13
-44 59 -75 103 l-56 78 0 126 c0 69 5 165 11 213 l11 88 63 55 c35 31 65 56
68 56 2 0 6 -66 9 -148 6 -172 19 -213 68 -231 18 -6 44 -11 56 -11 27 0 27 1
14 -71 -5 -30 -23 -139 -39 -242 l-29 -188 -43 -38 c-40 -35 -43 -41 -41 -82
2 -31 9 -49 24 -60 l21 -16 -26 -99 c-35 -135 -36 -146 -47 -499 -8 -285 -8
-326 4 -314 3 2 30 162 60 354 30 193 67 394 82 447 l27 96 33 -16 c39 -18 38
-13 19 -77 -24 -79 -37 -487 -28 -860 l8 -320 34 -3 c31 -3 33 -2 26 20 -15
44 -18 584 -5 926 9 240 10 346 2 354 -6 6 -29 8 -60 3 l-51 -7 -21 -61 c-11
-34 -36 -172 -56 -307 -19 -135 -37 -249 -39 -255 -3 -5 -2 80 1 190 6 172 10
215 34 309 15 59 25 116 23 126 -3 10 -16 23 -29 29 -42 19 -27 71 35 127 29
26 40 32 33 17 -7 -12 -26 -33 -44 -46 -27 -22 -30 -28 -19 -41 20 -24 37 -19
67 19 23 31 28 51 40 168 7 72 14 164 14 204 0 68 36 306 64 425 13 57 13 57
-15 90 -27 32 -28 37 -27 133 l2 100 3 -96 c4 -91 5 -97 33 -124 17 -16 30
-39 30 -51 0 -12 -13 -80 -29 -150 -33 -150 -54 -265 -48 -271 2 -2 7 9 10 24
3 15 26 114 50 220 l44 191 -34 43 c-32 41 -33 44 -33 140 0 55 4 99 8 99 5 0
13 -39 18 -86 l9 -87 55 -47 55 -47 72 8 c39 4 84 4 100 0 28 -8 28 -8 -80
-117 -60 -60 -118 -126 -128 -147 -59 -114 -123 -336 -133 -462 -4 -44 -9 -92
-12 -106 -5 -25 3 -31 102 -89 l107 -63 133 6 c73 3 138 8 144 12 7 4 9 44 4
123 -8 140 8 145 25 7 19 -154 25 -142 -74 -150 -47 -4 -85 -11 -85 -16 0 -5
5 -9 10 -9 6 0 10 -9 10 -21 0 -17 -5 -20 -22 -16 -73 19 -171 28 -181 18 -15
-15 -20 -390 -10 -866 8 -371 9 -390 27 -393 18 -4 19 10 12 564 -4 313 -9
585 -11 604 -7 53 6 65 66 62 49 -2 253 -64 273 -82 5 -5 6 -15 3 -24 -5 -12
-22 -8 -98 25 -51 21 -96 39 -100 39 -4 0 -10 -15 -14 -33 -4 -17 -15 -47 -26
-65 -34 -60 -73 -443 -74 -727 0 -170 3 -220 17 -265 30 -95 1 -88 361 -92
174 -2 317 -1 317 3 0 3 -52 46 -115 95 -83 64 -115 94 -115 110 0 12 -14 203
-30 425 -17 222 -30 431 -29 464 l3 59 -72 30 c-39 16 -70 31 -68 33 3 4 252
-95 335 -133 33 -15 36 -14 50 4 9 11 73 88 144 170 70 83 127 153 127 155 0
2 -22 19 -50 38 -47 32 -60 52 -42 63 4 2 47 -29 95 -71 72 -61 86 -77 76 -89
-16 -20 -24 -18 -39 11 -7 14 -17 25 -21 25 -4 0 -60 -64 -125 -142 -64 -79
-127 -153 -138 -166 -19 -21 -19 -24 -5 -32 42 -24 233 -184 310 -260 87 -86
162 -186 181 -241 8 -24 6 -59 -13 -160 -13 -75 -28 -129 -34 -129 -6 0 -18 6
-27 13 -15 11 -14 22 12 127 l29 115 -40 70 c-113 198 -274 357 -442 436 -67
31 -185 64 -195 55 -3 -4 0 -93 7 -199 21 -348 41 -631 47 -666 7 -43 77 -118
165 -177 l68 -45 133 3 133 3 14 63 c14 61 15 62 49 62 l34 0 -7 -52 c-4 -29
-8 -57 -9 -63 0 -6 129 -11 367 -13 l367 -2 0 43 c0 23 -7 150 -14 282 -24
383 -24 379 -4 383 23 4 26 -26 35 -393 l8 -310 1845 -3 c1015 -1 1851 0 1859
3 9 4 10 9 3 18 -12 15 -259 468 -469 862 -528 988 -1037 2007 -1311 2620 -95
215 -821 1915 -1176 2755 l-87 205 -182 183 c-100 101 -195 191 -212 202 -37
23 -148 54 -425 120 -150 35 -236 61 -285 85 -70 34 -72 34 -133 23 -34 -6
-63 -10 -65 -7 -17 23 -145 334 -182 442 -26 75 -50 137 -54 137 -3 0 -28 -35
-54 -78 -34 -53 -47 -68 -42 -47 100 442 103 493 45 645 -17 47 -64 168 -102
270 -117 306 -137 342 -356 630 -203 267 -331 400 -384 400 -13 0 -15 -5 -8
-27z m143 -273 c35 -85 67 -168 71 -183 6 -26 5 -28 -16 -22 -13 4 -24 9 -26
10 -2 2 -25 79 -52 172 -27 92 -51 177 -55 188 -18 54 19 -23 78 -165z m-826
-7 c-3 -10 -5 -4 -5 12 0 17 2 24 5 18 2 -7 2 -21 0 -30z m901 -238 c4 -37 -9
-45 -56 -33 -48 12 -52 20 -19 43 30 21 71 16 75 -10z m-869 -429 c-5 -6 -9
16 -9 60 0 38 -2 121 -5 184 -3 89 -1 76 10 -60 9 -110 10 -179 4 -184z m761
331 c0 -7 -16 -21 -36 -32 -21 -11 -50 -42 -69 -71 -27 -42 -58 -68 -167 -141
-175 -117 -162 -111 -145 -77 8 16 43 76 76 133 34 57 60 113 59 124 -3 18 12
23 132 52 74 18 138 31 143 28 4 -2 7 -10 7 -16z m-310 -89 c0 -11 -45 -86
-100 -166 l-100 -147 -128 -31 c-71 -17 -129 -27 -131 -21 -6 15 87 194 121
233 39 45 97 84 212 145 l91 49 18 -21 c9 -12 17 -30 17 -41z m-360 -406 c0
-5 -7 -31 -15 -58 -16 -55 -22 -42 107 -236 l58 -88 -25 -49 c-13 -27 -29 -52
-34 -55 -5 -3 -54 9 -110 27 l-101 32 0 55 c0 30 -3 87 -6 125 l-6 70 47 -78
c25 -44 48 -77 50 -75 2 1 -10 41 -26 88 -50 149 -49 219 4 240 29 11 57 12
57 2z m113 -819 c62 -62 109 -113 105 -113 -3 0 -45 23 -93 50 -48 28 -89 50
-91 50 -3 0 -2 -17 1 -37 11 -71 -15 -8 -40 95 -13 53 -33 119 -44 145 -32 74
-24 70 15 -8 27 -53 63 -97 147 -182z m176 159 c5 -10 15 -74 21 -143 6 -68
13 -133 16 -144 5 -22 -40 -74 -53 -61 -4 4 -15 32 -24 63 -14 44 -16 67 -8
106 5 27 9 83 9 123 0 58 3 74 15 74 8 0 19 -8 24 -18z m-92 -507 c102 -172
107 -181 96 -170 -14 14 -168 235 -182 262 -6 12 -11 30 -11 40 1 17 2 16 16
-2 9 -11 45 -69 81 -130z m199 45 c6 0 24 6 40 13 21 10 58 12 139 8 l110 -6
-65 -9 c-36 -5 -86 -19 -112 -32 -26 -13 -58 -24 -71 -24 -14 0 -39 -16 -62
-40 -21 -22 -37 -40 -34 -40 3 0 28 6 55 14 27 8 69 17 94 21 25 4 77 15 115
25 39 10 85 21 103 24 l32 6 0 -70 0 -69 -37 -10 c-21 -5 -67 -17 -102 -26
-36 -9 -92 -30 -125 -47 l-61 -31 43 -20 c23 -12 42 -23 42 -26 0 -4 -9 -17
-19 -31 -16 -20 -22 -22 -34 -11 -35 28 -160 235 -182 300 l-24 70 37 29 36
30 36 -24 c19 -13 40 -24 46 -24z m1557 -371 c177 -51 374 -117 407 -136 14
-8 17 -12 7 -9 -75 23 -545 170 -554 174 -20 7 -16 -33 5 -51 9 -8 87 -47 172
-85 85 -38 215 -97 288 -132 l133 -64 -30 -30 -31 -30 -142 28 c-79 16 -167
39 -197 52 -30 14 -56 22 -58 20 -2 -2 24 -25 60 -50 81 -57 100 -97 99 -198
-1 -89 -27 -194 -83 -333 -57 -144 -54 -141 -111 -116 -26 11 -68 39 -93 63
-54 49 -157 201 -210 309 -31 61 -47 82 -90 112 -47 33 -53 41 -57 78 -2 26 1
43 8 46 25 9 84 -27 118 -74 37 -51 169 -279 231 -401 20 -40 46 -77 56 -83
10 -5 19 -8 19 -6 0 5 -193 345 -272 480 -44 76 -92 114 -157 125 l-43 7 106
117 c86 95 106 123 106 148 0 34 7 38 105 62 33 9 61 16 63 17 2 0 67 -17 145
-40z m482 -56 c202 -122 301 -235 362 -413 26 -76 32 -227 10 -278 -11 -26
-75 -82 -93 -82 -3 0 8 19 24 43 27 39 42 86 56 177 13 81 -53 206 -164 310
-129 121 -277 257 -315 288 l-40 33 50 -21 c27 -12 76 -37 110 -57z m-817 17
c-2 -11 -43 -67 -93 -124 l-90 -104 -7 56 -8 56 43 44 c40 42 118 91 145 92 8
0 12 -8 10 -20z m-1132 -17 c43 -25 46 -28 25 -31 -16 -3 -34 6 -55 27 -38 38
-32 39 30 4z m1966 -140 c46 -44 107 -123 137 -180 21 -41 4 -24 -34 35 -21
31 -68 87 -103 125 -75 77 -75 89 0 20z m-1078 -245 c-25 -49 -49 -77 -66 -78
-12 0 -9 189 2 232 6 21 26 50 48 69 l37 33 3 -102 c2 -93 1 -106 -24 -154z
m-170 -29 c13 -79 16 -113 8 -121 -13 -13 -16 -1 -31 115 -13 93 -14 117 -3
117 4 0 16 -50 26 -111z m-70 69 c3 -13 10 -56 16 -97 8 -59 8 -76 -2 -83 -7
-4 -16 -8 -19 -8 -3 0 -13 41 -23 91 -13 70 -14 94 -5 105 17 20 28 17 33 -8z
m-304 -112 c0 -2 -18 -16 -41 -30 -22 -15 -75 -57 -117 -93 l-77 -66 60 62
c69 72 175 149 175 127z m729 -45 c11 -15 25 -49 31 -75 6 -26 21 -69 35 -95
33 -67 168 -207 226 -237 104 -52 341 -102 585 -123 105 -8 116 -12 205 -57
l94 -48 -40 -7 c-22 -4 -114 -16 -205 -28 -183 -23 -264 -20 -430 20 -143 34
-384 115 -417 141 -8 6 -12 2 -15 -14 -3 -20 -8 -15 -40 34 -54 83 -128 323
-128 416 0 35 6 49 29 73 37 36 45 36 70 0z m-117 -37 c-3 -17 -8 -22 -15 -15
-7 7 -6 15 3 26 17 20 18 19 12 -11z m-246 -89 c16 -25 16 -26 -43 -88 -33
-34 -70 -83 -83 -107 -12 -25 -43 -74 -68 -110 -51 -74 -212 -270 -221 -270
-12 1 -172 323 -164 331 9 9 544 268 555 268 4 1 15 -10 24 -24z m-596 -29 c0
-2 -8 -10 -17 -17 -16 -13 -17 -12 -4 4 13 16 21 21 21 13z m865 -102 c-3 -19
-10 -32 -16 -29 -10 7 -12 55 -3 80 12 30 27 -11 19 -51z m1404 -38 c6 -25 11
-61 11 -82 0 -47 -42 -224 -53 -224 -11 0 -5 330 6 348 13 19 24 6 36 -42z
m-2202 -279 l91 -172 -21 -23 c-30 -33 -78 -56 -167 -81 -140 -39 -262 -59
-320 -52 -51 6 -55 8 -58 34 -5 44 -22 31 -22 -17 0 -26 6 -48 15 -56 22 -19
119 -22 345 -12 113 5 206 8 208 7 1 -1 -20 -11 -48 -21 -45 -18 -60 -19 -133
-9 -62 8 -106 7 -182 -3 -96 -13 -180 -11 -218 4 -17 6 -18 3 -11 -32 3 -22
12 -46 19 -54 28 -35 22 -54 -38 -110 l-59 -55 42 68 c43 68 43 69 32 118 -22
92 -16 135 29 223 56 108 90 157 163 231 56 57 219 185 234 185 4 0 48 -78 99
-173z m1900 141 c-3 -8 -6 -5 -6 6 -1 11 2 17 5 13 3 -3 4 -12 1 -19z m-978
-138 c17 -8 20 -22 20 -90 l0 -80 -27 14 c-61 32 -63 36 -78 156 -7 63 -14
120 -14 125 0 6 18 -18 40 -52 22 -34 49 -67 59 -73z m869 94 c51 -4 92 -10
92 -14 0 -8 -97 -3 -215 10 -66 7 -67 7 -19 9 28 0 92 -2 142 -5z m-751 -185
c-12 -30 -12 -30 -18 -7 -14 47 -11 60 10 48 17 -9 18 -14 8 -41z m63 -4 l29
-15 -42 -69 c-32 -52 -44 -65 -51 -54 -10 18 -2 90 15 127 14 31 12 30 49 11z
m-1627 -92 c5 -50 4 -63 -7 -63 -21 0 -25 20 -13 77 6 29 12 51 13 50 0 -1 4
-30 7 -64z m1698 54 c0 -4 -27 -49 -61 -100 -42 -65 -60 -85 -60 -69 0 42 90
187 111 180 6 -2 10 -7 10 -11z m31 -45 c-17 -20 -53 -75 -81 -122 -75 -125
-70 -119 -70 -85 -1 34 68 147 127 208 47 48 62 48 24 -1z m971 21 c3 -5 7
-116 10 -248 3 -153 2 -198 -3 -125 -4 63 -8 173 -9 243 l-1 128 -57 -5 c-43
-3 -49 -3 -23 3 48 11 78 12 83 4z m-929 -30 c-51 -77 -174 -285 -174 -294 0
-11 22 -6 74 17 36 15 20 19 -18 4 -14 -5 -26 -6 -26 -2 0 26 149 212 192 240
36 24 45 6 36 -74 -7 -64 -12 -79 -35 -99 -16 -14 -48 -30 -73 -37 -24 -6 -39
-13 -33 -15 16 -6 -14 -34 -57 -54 -19 -9 -56 -33 -82 -53 -55 -41 -60 -36
-18 20 17 23 30 51 30 70 0 33 70 157 140 251 42 54 77 75 44 26z m794 10
c-10 -2 -26 -2 -35 0 -10 3 -2 5 17 5 19 0 27 -2 18 -5z m-155 -20 l-93 -15 0
-98 c0 -121 -24 -261 -53 -313 -14 -26 -36 -46 -61 -58 l-39 -17 44 -12 c60
-15 190 -60 209 -72 11 -7 10 -8 -5 -3 -77 25 -346 57 -425 49 -65 -5 -160 -7
-164 -3 -3 2 -12 47 -20 99 -9 52 -18 104 -21 116 -4 18 10 30 87 75 119 71
215 163 224 217 l6 39 112 -2 c61 -2 138 1 171 5 105 13 123 8 28 -7z m-343
-8 c0 -60 -103 -167 -229 -240 -82 -48 -82 -48 -77 -84 3 -20 10 -74 16 -121
19 -147 -2 -131 163 -124 155 7 378 -8 467 -31 52 -14 46 -15 -105 -8 -208 10
-428 10 -485 0 l-45 -7 -24 152 c-12 84 -25 160 -27 169 -3 10 11 26 38 44 94
62 204 164 232 215 21 39 33 50 52 50 15 0 24 -6 24 -15z m-145 -65 c4 -19 2
-36 -5 -45 -20 -24 -25 -17 -22 30 5 52 17 59 27 15z m-1980 -60 c13 -21 -177
-308 -231 -350 -22 -17 -26 -23 52 80 27 36 72 114 99 172 47 101 65 122 80
98z m1765 -195 c0 -7 -14 -16 -30 -20 -17 -4 -55 -29 -85 -57 -49 -44 -55 -47
-55 -28 0 28 54 80 112 107 45 22 58 21 58 -2z m8 -70 c3 -27 -3 -34 -60 -68
-35 -20 -73 -44 -85 -53 -22 -16 -23 -16 -23 14 0 53 97 146 145 140 14 -2 21
-12 23 -33z m-1594 -18 c16 -11 17 -22 11 -66 -6 -48 -9 -51 -28 -44 -31 11
-99 8 -125 -6 -29 -15 -57 -72 -72 -146 -13 -63 -32 -109 -51 -121 -14 -8 -6
35 22 123 11 34 19 68 17 76 -2 7 33 51 76 98 72 77 78 81 73 52 -4 -20 -1
-35 8 -43 18 -15 27 1 25 43 -1 17 -2 35 -1 40 2 11 25 8 45 -6z m56 -78 c0
-44 -4 -68 -10 -64 -5 3 -10 35 -10 71 0 36 4 64 10 64 6 0 10 -30 10 -71z
m65 61 c-3 -5 -1 -10 5 -10 6 0 33 -9 60 -21 l48 -21 -26 -74 c-24 -67 -25
-75 -11 -89 15 -15 18 -10 39 64 21 71 25 79 42 70 24 -13 23 -21 -8 -102 -21
-54 -24 -71 -14 -82 7 -8 16 -13 20 -10 4 2 17 41 30 85 20 71 25 79 38 67 13
-13 11 -25 -16 -94 -26 -66 -28 -80 -16 -92 18 -20 22 -15 45 70 20 72 39 109
39 79 0 -12 -48 -162 -56 -178 -1 -2 -59 38 -128 90 l-125 93 -1 83 c0 76 1
82 21 82 11 0 17 -4 14 -10z m1485 -55 c0 -25 -6 -37 -22 -46 -13 -7 -48 -37
-80 -66 l-56 -54 -7 40 c-5 33 -3 46 14 66 26 35 62 62 103 80 46 20 48 19 48
-20z m997 -108 c-2 -23 -3 -1 -3 48 0 50 1 68 3 42 2 -26 2 -67 0 -90z m-2714
-7 c-15 -60 -15 -61 7 -86 16 -16 30 -22 42 -18 12 4 35 -5 61 -22 72 -47 247
-195 247 -208 0 -7 -10 -18 -23 -23 -21 -10 -35 -1 -146 93 -68 57 -127 104
-132 104 -14 0 -49 -43 -49 -61 0 -10 -3 -24 -6 -32 -4 -10 44 -59 150 -153
86 -75 156 -142 156 -147 0 -6 -12 1 -27 14 -94 86 -252 219 -260 219 -5 0
-16 -12 -25 -28 l-16 -27 164 -154 c90 -84 164 -157 164 -161 0 -4 -8 -17 -17
-29 -18 -20 -19 -19 -166 120 -81 78 -149 140 -152 138 -2 -2 9 -32 23 -66 22
-50 53 -90 155 -198 71 -74 124 -135 119 -135 -6 0 -65 52 -133 116 -67 63
-125 112 -129 107 -3 -4 -14 -27 -24 -50 l-19 -42 134 -141 c74 -78 135 -149
137 -158 1 -9 -63 51 -143 133 -109 113 -145 156 -145 175 0 35 -86 122 -96
97 -3 -10 -3 -28 0 -42 4 -17 2 -24 -6 -23 -7 2 -13 -13 -15 -39 -4 -48 1 -53
26 -22 28 34 53 17 93 -64 36 -73 152 -235 222 -311 30 -32 38 -36 51 -26 31
26 26 0 -8 -42 -19 -24 -44 -62 -56 -85 -25 -50 -56 -180 -66 -273 l-7 -65
-85 -63 c-46 -35 -87 -61 -90 -58 -9 8 73 238 117 331 21 44 64 115 95 157 32
42 56 80 54 85 -1 4 -49 50 -106 101 -85 77 -111 108 -150 178 -26 46 -52 83
-57 81 -28 -9 -11 -48 64 -142 l79 -100 -30 -8 c-39 -10 -54 3 -121 103 l-49
75 5 -127 c3 -71 9 -183 12 -251 4 -105 3 -125 -10 -136 -14 -12 -16 13 -16
265 0 165 -4 274 -9 269 -11 -13 -19 -109 -27 -357 l-7 -197 -27 -6 c-16 -3
-31 -13 -34 -22 -5 -13 0 -14 29 -9 19 4 35 5 35 3 0 -1 -19 -21 -41 -42 l-42
-40 7 420 c8 509 16 724 27 747 5 9 9 47 9 85 0 52 7 85 29 139 16 38 32 84
36 102 5 26 12 32 32 32 19 0 23 -3 15 -12 -8 -11 -42 -232 -42 -277 0 -8 -6
-11 -15 -7 -8 3 -22 9 -30 12 -13 5 -15 -11 -15 -117 1 -143 2 -143 71 -5 28
55 39 91 39 122 0 24 2 44 4 44 2 0 11 2 19 6 10 3 21 -10 36 -45 23 -55 27
-57 66 -39 19 8 25 19 25 42 0 27 -7 34 -45 55 -31 16 -44 29 -41 40 3 9 7 41
11 71 12 107 42 170 80 170 l23 0 -15 -60z m179 -2 c225 -166 231 -171 214
-180 -13 -7 -38 8 -109 64 -50 40 -126 91 -168 113 -45 24 -74 45 -72 53 9 26
54 10 135 -50z m1548 43 c0 -11 2 -25 5 -33 3 -8 -7 -21 -24 -31 -17 -10 -54
-40 -84 -67 l-55 -50 -4 35 c-2 19 0 42 5 51 9 16 137 114 150 114 4 0 7 -9 7
-19z m-302 -44 c4 -22 -39 -71 -77 -86 -14 -6 -125 -22 -246 -35 l-220 -24
-52 40 c-29 22 -53 44 -53 47 0 7 588 80 625 77 11 0 21 -9 23 -19z m-787 -71
c16 10 9 -13 -9 -29 -17 -16 -19 -15 -35 18 -23 47 -22 50 9 26 15 -11 30 -18
35 -15z m1107 2 c2 -10 -18 -30 -52 -53 -31 -20 -67 -50 -80 -65 -25 -31 -36
-29 -36 5 0 23 43 68 105 109 42 28 58 29 63 4z m-944 -101 c6 -10 -5 -41 -38
-103 -62 -115 -73 -126 -135 -132 -50 -4 -51 -4 -51 23 0 28 83 249 102 273 8
9 22 6 62 -17 28 -17 55 -36 60 -44z m-240 -57 c-9 -51 -20 -200 -15 -206 2
-2 22 -4 43 -4 42 0 42 0 27 -32 -6 -14 -7 -33 -2 -46 8 -21 15 -23 100 -25
50 -1 94 -5 98 -9 17 -17 -12 -28 -73 -29 -84 -1 -170 -13 -182 -25 -10 -10
-90 -298 -90 -324 0 -8 19 28 43 80 52 116 98 185 140 211 28 16 52 19 182 19
83 0 157 -5 165 -10 10 -7 -6 -10 -55 -10 -67 -1 -189 -13 -247 -26 -32 -6
-46 -29 -117 -186 -29 -64 -60 -123 -69 -131 -10 -8 -39 -22 -67 -30 -49 -15
-48 -21 5 -30 l25 -4 -23 -8 c-31 -10 -24 -39 10 -43 15 -2 38 4 53 14 36 24
41 12 8 -23 -23 -25 -39 -31 -91 -37 -35 -4 -75 -11 -88 -16 -32 -13 -70 -93
-125 -263 -45 -141 -53 -157 -77 -157 -12 0 -14 11 -10 65 6 73 53 183 115
269 20 28 37 64 38 81 1 16 24 72 51 124 l49 93 3 112 4 113 32 11 c31 11 34
16 40 70 4 31 11 138 16 237 5 123 13 197 25 234 l17 54 25 -39 c18 -30 22
-47 17 -74z m1547 83 c-32 -15 -61 -39 -72 -57 -14 -24 -30 -35 -64 -44 -60
-16 -56 -38 6 -34 l44 3 -35 -30 c-37 -32 -36 -37 4 -21 36 13 32 6 -9 -20
-47 -29 -45 -45 3 -18 29 18 34 19 23 5 -22 -28 -4 -33 24 -7 27 25 35 17 10
-10 -14 -16 -10 -18 59 -27 89 -13 112 -24 261 -127 l114 -79 118 -18 c172
-27 159 -31 156 49 -1 38 8 -9 21 -108 13 -96 34 -230 46 -297 20 -106 21
-125 10 -154 -24 -56 -101 -167 -280 -399 -307 -398 -378 -504 -440 -653 -18
-44 -58 -113 -90 -155 -66 -90 -199 -219 -288 -282 -34 -24 -60 -50 -58 -56 3
-7 66 -93 140 -191 l136 -179 24 -129 c74 -392 147 -808 144 -821 -2 -12 -6
-13 -19 -2 -11 9 -36 110 -78 318 -34 168 -65 313 -69 323 -6 15 -19 5 -75
-62 -63 -75 -84 -91 -100 -75 -4 4 32 48 78 99 l85 92 0 110 0 109 -92 104
c-51 57 -107 120 -124 139 -32 37 -87 181 -75 197 3 5 92 88 196 183 l190 174
61 132 c80 174 88 186 240 387 71 95 212 286 312 424 l181 250 -36 216 -36
216 -66 6 c-36 3 -101 9 -144 12 -73 6 -82 9 -130 48 -190 154 -217 170 -312
187 -58 11 -68 11 -76 -2 -4 -9 -18 -27 -29 -40 l-22 -24 21 32 c12 17 21 34
21 37 0 23 -194 -9 -294 -49 -76 -31 -76 -31 -76 -1 0 17 7 26 25 30 14 4 25
11 25 16 0 12 2 12 -38 1 -46 -14 -43 14 4 29 32 11 44 40 13 31 -45 -12 -49
-9 -11 9 41 20 59 46 25 37 -91 -25 -94 -11 -5 18 41 13 50 20 42 30 -8 9 -5
14 11 18 12 3 18 10 14 16 -3 6 -1 11 4 11 6 0 11 7 11 15 0 16 34 13 105 -11
48 -16 55 -17 55 -5 0 9 -39 22 -150 51 -34 9 -40 14 -28 21 10 6 49 -3 118
-26 57 -19 106 -33 108 -30 14 13 -13 33 -67 50 -34 10 -64 22 -67 27 -3 4 68
8 157 8 l163 0 -53 -27z m-581 7 c0 -13 -15 -16 -270 -45 -124 -14 -239 -27
-257 -30 -31 -6 -33 -9 -63 -106 -17 -56 -29 -104 -25 -107 3 -4 133 6 288 22
155 16 305 30 332 32 l50 3 -50 -8 c-138 -23 -637 -83 -650 -78 -18 8 -13 37
27 164 19 61 34 94 46 97 45 13 448 62 535 65 20 0 37 -3 37 -9z m203 -47 c-7
-2 -21 -2 -30 0 -10 3 -4 5 12 5 17 0 24 -2 18 -5z m-14 -37 c-10 -9 -79 -14
-74 -5 4 5 22 9 42 9 20 0 34 -2 32 -4z m-39 -51 c-19 -7 -42 -13 -50 -13 -8
0 1 6 20 13 19 7 42 13 50 13 8 0 -1 -6 -20 -13z m-1281 -211 c-12 -91 -14
-94 -40 -94 -24 0 -24 12 0 34 11 10 24 44 31 82 17 89 23 75 9 -22z m1568 43
c-2 -6 -76 -116 -164 -242 -135 -196 -372 -589 -361 -601 2 -2 41 57 87 131
46 74 85 135 88 135 3 0 -6 -19 -20 -42 -13 -24 -82 -149 -152 -278 -71 -129
-163 -292 -206 -361 -43 -69 -111 -184 -152 -255 -41 -72 -88 -152 -105 -179
-29 -47 -32 -65 -12 -65 6 0 22 24 37 53 l27 52 7 -45 c4 -25 14 -62 23 -84 9
-21 16 -40 16 -43 0 -2 -30 13 -67 33 -55 29 -76 35 -109 31 l-41 -4 55 101
c59 109 110 198 137 240 l17 26 -92 0 -92 0 6 -45 c4 -25 5 -45 2 -45 -23 0
-36 16 -36 45 0 19 -3 36 -7 38 -5 3 -46 -1 -93 -8 -47 -7 -87 -11 -89 -9 -2
2 -1 14 3 27 5 23 10 25 113 29 60 3 113 2 118 -1 6 -4 46 -3 91 2 l81 9 68
116 c38 65 89 150 113 191 26 45 37 71 28 68 -24 -9 -19 6 9 33 29 27 24 45
-8 29 l-22 -12 21 24 c11 13 26 51 33 83 7 32 33 100 57 149 24 50 44 98 44
108 0 9 34 59 75 110 41 50 75 100 75 109 0 10 7 23 15 30 8 7 15 19 15 27 0
20 -33 1 -92 -55 l-48 -45 16 39 c68 162 121 230 221 279 135 66 283 106 270
72z m-6 -76 c-12 -16 -21 -31 -21 -34 0 -3 17 -1 38 4 20 5 64 8 97 7 l60 -1
-75 -9 c-115 -14 -129 -24 -205 -149 -37 -60 -69 -109 -70 -109 -2 0 -1 9 2
20 9 35 -3 22 -57 -60 -29 -44 -55 -80 -57 -80 -8 0 15 33 164 248 74 105 137
192 140 192 2 0 -5 -13 -16 -29z m167 -83 c-3 -8 -31 -15 -73 -18 l-69 -5 -46
-57 c-99 -125 -491 -793 -748 -1278 -21 -40 -23 -54 -19 -132 4 -54 2 -90 -4
-94 -6 -4 -2 -14 10 -25 15 -14 21 -32 21 -64 0 -25 -4 -45 -9 -45 -12 0 -77
73 -94 107 -37 73 -28 165 26 250 154 247 159 256 678 1112 162 267 157 261
254 261 57 0 76 -3 73 -12z m-668 -88 c0 -6 -28 -10 -64 -10 -65 0 -558 -29
-562 -33 -1 -1 -21 -51 -43 -110 -27 -71 -39 -116 -35 -132 l6 -25 316 7 c216
4 313 3 309 -4 -8 -12 -603 -29 -637 -18 -20 6 -22 12 -18 54 5 45 56 185 83
228 15 22 42 28 195 43 119 11 450 12 450 0z m40 -155 c-29 -30 -56 -52 -59
-49 -5 5 97 103 109 104 2 0 -20 -25 -50 -55z m270 5 c-6 -11 -13 -20 -16 -20
-2 0 0 9 6 20 6 11 13 20 16 20 2 0 0 -9 -6 -20z m610 -41 c0 -5 -70 -115
-157 -246 -86 -131 -268 -409 -406 -618 -370 -563 -369 -561 137 283 l379 632
24 -22 c13 -12 23 -25 23 -29z m-2085 -129 c-4 -12 -9 -19 -12 -17 -3 3 -2 15
2 27 4 12 9 19 12 17 3 -3 2 -15 -2 -27z m398 -81 c-14 -23 -24 -29 -51 -29
l-34 0 42 35 c48 40 68 37 43 -6z m-92 13 c-5 -9 -19 -26 -32 -37 l-22 -20 13
25 c17 34 31 50 42 50 5 0 5 -7 -1 -18z m180 -11 c-9 -17 -61 -36 -61 -23 0
14 35 42 52 42 15 0 17 -4 9 -19z m1914 -97 c-33 -31 -68 -60 -77 -65 -16 -9
-17 -7 -6 18 23 53 49 83 81 92 61 18 62 10 2 -45z m-1745 34 c-152 -21 -163
-25 -60 -27 52 -1 113 -6 135 -10 l40 -9 -50 -1 c-156 -4 -442 -22 -474 -30
-20 -5 -48 -12 -63 -15 -47 -11 -86 -55 -143 -160 -38 -72 -63 -106 -81 -115
l-27 -12 7 58 c7 68 59 180 108 236 l33 38 170 29 c138 23 199 28 320 28 132
0 142 -2 85 -10z m-899 -98 c-23 -17 -47 -41 -52 -54 -6 -13 -33 -34 -62 -47
-44 -21 -53 -30 -66 -71 -22 -64 -30 -68 -24 -11 3 27 13 56 24 67 37 39 185
144 203 145 13 1 6 -8 -23 -29z m1245 -22 l-1 -33 -210 -20 -210 -20 -27 40
c-19 26 -24 41 -15 43 21 4 288 19 378 21 l86 1 -1 -32z m-488 -18 c4 -12 2
-13 -10 -3 -11 10 -38 11 -107 4 -107 -10 -135 -25 -166 -89 -25 -53 -50 -66
-41 -21 7 37 40 85 67 100 27 14 130 27 198 25 39 -1 56 -5 59 -16z m67 -250
c8 -91 17 -180 19 -197 4 -29 2 -33 -19 -33 -19 0 -25 6 -29 33 -7 41 -26 313
-26 363 l0 38 20 -20 c17 -17 23 -45 35 -184z m-85 151 c0 -5 -21 -14 -47 -20
-27 -7 -65 -17 -87 -22 l-38 -10 5 -45 c2 -24 1 -44 -3 -44 -11 0 -20 38 -20
81 l0 37 73 15 c86 18 117 20 117 8z m2170 -447 c28 -231 61 -511 75 -624 13
-113 38 -324 56 -470 l31 -265 68 -110 68 -110 26 -255 c15 -140 29 -266 31
-280 5 -24 5 -24 -10 -6 -8 10 -48 78 -89 150 l-74 131 -12 155 c-7 97 -65
505 -156 1099 l-146 944 39 33 c21 18 39 31 41 29 1 -1 25 -191 52 -421z
m-2393 329 c24 -76 66 -283 59 -291 -6 -5 -9 8 -36 142 -11 55 -21 101 -23
102 -1 1 -35 -9 -76 -22 -40 -14 -75 -23 -77 -21 -2 2 29 17 69 33 65 26 72
32 69 54 -2 14 -7 29 -12 34 -5 4 -49 -6 -100 -24 -84 -31 -91 -35 -86 -56 8
-29 -10 -40 -23 -15 -21 39 -13 58 32 75 89 34 153 55 168 55 10 1 22 -20 36
-66z m229 8 c-3 -5 -31 -12 -62 -16 -32 -4 -64 -9 -73 -13 -9 -3 -13 -1 -8 4
7 7 73 23 140 33 5 0 6 -3 3 -8z m-1080 -90 c-25 -26 -26 -30 -26 -167 0 -134
-6 -164 -32 -164 -4 0 -8 67 -8 149 l0 148 43 54 c38 48 42 51 45 30 2 -15 -6
-33 -22 -50z m563 32 c0 -16 -3 -22 -6 -15 -2 6 -9 12 -14 12 -7 0 -97 -62
-167 -116 -2 -1 1 -12 8 -23 6 -12 8 -21 6 -21 -3 0 -12 14 -21 30 l-16 30 98
65 c54 35 101 64 106 64 4 1 7 -11 6 -26z m416 -100 c10 -54 20 -104 22 -110
3 -7 1 -13 -5 -13 -5 0 -17 42 -27 93 -9 50 -18 100 -21 110 -3 9 -1 17 3 17
5 0 18 -44 28 -97z m-395 28 c0 -5 -21 -25 -47 -46 l-48 -37 45 45 c51 51 50
50 50 38z m100 -127 c22 -59 39 -107 38 -108 -2 -1 -16 -7 -31 -14 -27 -12
-28 -11 -48 36 l-20 47 20 14 c39 25 22 53 -19 31 -14 -8 -19 -5 -23 11 -6 21
20 89 34 89 4 0 26 -48 49 -106z m-367 37 c-12 -9 -42 -34 -67 -55 -57 -47
-73 -41 -19 7 81 72 98 85 102 75 2 -6 -5 -18 -16 -27z m531 -93 c-5 -8 -93
-42 -98 -37 -2 2 -7 25 -10 52 l-7 47 43 20 43 19 16 -47 c9 -26 15 -50 13
-54z m-418 54 c-4 -3 -14 2 -24 12 -16 18 -16 18 6 6 13 -6 21 -14 18 -18z
m-75 1 c13 -16 12 -17 -3 -4 -15 11 -21 11 -35 0 -16 -13 -17 -12 -4 4 7 9 17
17 21 17 4 0 14 -8 21 -17z m233 -72 c20 -32 36 -63 36 -68 0 -10 -53 -43 -69
-43 -6 0 -24 26 -40 58 l-29 58 31 27 c18 14 33 26 34 26 1 1 18 -25 37 -58z
m-304 45 c0 -2 -8 -10 -17 -17 -16 -13 -17 -12 -4 4 13 16 21 21 21 13z m61
-36 c-14 -10 -38 -25 -55 -34 -31 -17 -31 -17 -6 1 13 10 36 28 50 40 14 12
27 19 30 16 3 -2 -6 -13 -19 -23z m124 -60 c25 -39 45 -74 45 -79 0 -5 -11
-16 -24 -25 -24 -15 -25 -15 -55 39 -34 60 -42 135 -15 135 2 0 23 -32 49 -70z
m423 14 c-2 -10 -32 -27 -81 -44 l-78 -27 3 30 c3 28 8 31 78 52 74 22 85 21
78 -11z m-718 -64 c-29 -82 -26 -172 5 -226 22 -38 97 -106 126 -116 6 -2 4
-18 -5 -40 -16 -36 -17 -37 -86 -44 -86 -8 -95 -18 -169 -175 -37 -78 -57
-108 -76 -117 -45 -21 -48 -13 -12 36 37 50 56 111 81 257 18 107 37 340 30
360 -3 8 -20 17 -37 21 l-32 7 50 23 c28 12 66 38 85 58 27 29 37 34 46 24 10
-10 9 -24 -6 -68z m110 -65 l63 -106 -13 -74 c-7 -41 -16 -75 -21 -75 -14 0
-82 102 -105 158 -14 34 -24 78 -24 109 0 52 17 106 30 98 4 -3 36 -52 70
-110z m119 34 l33 -62 -28 -23 c-16 -13 -32 -23 -35 -24 -3 0 -19 31 -36 69
l-31 70 22 15 c11 8 26 15 31 15 6 1 25 -27 44 -60z m-596 12 c4 -16 -4 -20
-67 -30 -39 -7 -77 -15 -84 -20 -10 -6 -9 -30 8 -121 30 -168 23 -166 -15 5
-18 82 -33 150 -32 151 8 5 173 40 178 37 4 -1 9 -11 12 -22z m860 4 c-14 -25
-137 -108 -141 -95 -6 16 14 36 81 80 61 41 76 45 60 15z m-783 5 c0 -5 -4
-10 -9 -10 -5 0 -18 -3 -28 -6 -16 -5 -16 -4 1 10 23 18 36 20 36 6z m940 -26
c0 -26 1 -27 53 -20 204 25 337 18 350 -18 3 -7 -16 -45 -41 -84 -34 -51 -57
-75 -84 -87 -20 -9 -40 -25 -44 -37 -7 -22 -16 -22 -161 3 l-63 11 0 53 c0 90
-8 115 -40 115 -19 0 -30 7 -39 26 -6 15 -10 28 -9 29 8 7 64 34 71 35 4 0 7
-12 7 -26z m-907 -59 c63 13 106 17 123 11 13 -5 6 -17 -37 -64 -60 -65 -129
-192 -129 -235 0 -25 -3 -27 -22 -21 -31 9 -31 9 -19 32 6 12 11 29 10 39 0
15 -2 14 -9 -4 -11 -27 -23 -29 -40 -8 -20 24 -14 62 15 101 l28 37 23 -39
c20 -32 24 -35 24 -17 0 12 -14 39 -32 59 -33 37 -42 39 -107 18 -36 -11 -21
8 62 76 71 58 72 59 75 34 3 -24 7 -26 35 -19z m779 15 c4 -28 -1 -35 -59 -75
-35 -25 -68 -45 -73 -45 -4 0 -13 13 -18 29 -10 29 -10 30 66 74 42 25 78 45
78 46 1 1 4 -13 6 -29z m-202 -71 c0 -9 -121 -101 -126 -96 -12 11 17 52 61
87 35 28 52 35 57 27 4 -7 8 -15 8 -18z m26 -54 c5 -20 -4 -34 -50 -81 -55
-55 -79 -63 -92 -31 -5 13 111 136 128 137 4 0 10 -11 14 -25z m217 -4 c4 -17
19 -44 35 -62 27 -30 33 -32 145 -43 64 -7 118 -14 120 -16 3 -3 2 -24 -2 -47
-5 -36 -18 -55 -89 -126 l-82 -84 -123 -7 c-67 -3 -143 -9 -169 -12 -45 -6
-48 -5 -58 20 -5 14 -14 26 -20 26 -6 0 -10 37 -10 98 l0 97 56 40 c49 35 54
42 49 66 -5 23 -3 27 12 23 10 -2 38 9 63 25 57 38 66 38 73 2z m592 -153 c55
-32 111 -68 125 -78 l25 -20 -31 9 c-17 5 -50 21 -72 36 -48 32 -72 28 -72
-12 0 -15 -3 -38 -6 -50 -6 -21 -8 -20 -77 22 -40 24 -89 46 -109 50 -21 4
-38 11 -38 15 0 17 55 73 85 86 39 17 51 13 170 -58z m-1585 33 c5 -11 10 -53
10 -94 0 -78 19 -160 46 -192 16 -20 16 -20 9 0 -17 48 -18 68 -1 77 12 7 15
16 10 31 l-6 22 22 -21 c21 -21 22 -25 10 -93 -12 -74 -30 -104 -59 -99 -12 2
-27 47 -59 175 -42 166 -42 172 -25 192 22 26 29 26 43 2z m638 -97 c-3 -14
-5 -12 -10 9 -3 19 -2 25 4 19 6 -6 8 -18 6 -28z m733 4 c46 -15 238 -137 308
-195 66 -56 80 -68 66 -61 -5 3 -48 24 -95 46 -47 23 -127 66 -179 96 -92 54
-130 64 -95 25 10 -11 109 -80 221 -155 l204 -135 -21 -30 c-12 -16 -24 -29
-26 -29 -9 0 -94 60 -194 136 -53 40 -119 84 -147 97 -34 16 -65 41 -92 74
-40 52 -42 63 -9 63 21 0 22 4 6 29 -9 15 -9 23 1 35 16 19 10 19 52 4z
m-1241 -12 c0 -3 -4 -8 -10 -11 -5 -3 -10 -1 -10 4 0 6 5 11 10 11 6 0 10 -2
10 -4z m502 -127 l-3 -102 31 -32 32 -33 -21 -108 c-11 -59 -24 -111 -29 -116
-11 -11 -75 -1 -97 16 -24 18 -34 83 -35 233 l0 131 63 56 c34 31 62 56 62 56
0 0 -1 -46 -3 -101z m656 -33 c27 -14 73 -44 103 -67 64 -51 269 -221 269
-225 0 -1 -39 22 -87 50 -139 84 -243 136 -269 136 -22 0 -25 -4 -22 -31 3
-29 16 -40 151 -123 180 -112 184 -116 158 -140 -19 -17 -25 -14 -193 73
l-175 91 -19 -23 c-50 -56 -51 -53 26 -83 38 -15 70 -32 70 -38 0 -6 2 -29 5
-51 l5 -40 -13 45 c-11 38 -18 46 -47 54 -24 7 -35 7 -38 -2 -2 -7 -32 9 -75
38 l-71 50 -28 -27 c-31 -30 -30 -47 2 -18 25 23 42 15 118 -53 43 -38 51 -51
46 -70 l-6 -23 -34 20 -33 20 -39 -52 c-47 -61 -67 -100 -77 -146 -6 -31 -5
-33 11 -26 87 34 108 29 55 -15 -26 -22 -38 -27 -52 -19 -10 5 -20 5 -23 1 -8
-14 8 -30 34 -34 l25 -4 -29 -13 c-38 -15 -46 -4 -46 64 1 76 15 122 56 182
45 65 67 79 100 64 28 -12 31 -5 8 20 -15 17 -18 17 -60 -2 -25 -10 -43 -15
-40 -10 3 5 19 14 36 21 32 13 42 35 13 26 -10 -2 -33 -8 -51 -11 -31 -6 -33
-5 -27 14 5 18 2 21 -19 21 -16 0 -26 6 -26 15 0 8 -3 15 -6 15 -9 0 -62 -38
-116 -83 -35 -28 -48 -34 -48 -22 0 17 22 41 80 88 l35 29 -50 -27 -50 -27 42
41 c31 30 51 41 75 42 l33 1 -27 11 c-16 6 -28 14 -28 19 0 30 279 278 312
278 5 0 30 -11 56 -24z m-1248 -158 c-29 -11 -25 -28 10 -34 31 -7 37 -23 24
-71 -6 -21 -13 -23 -67 -23 -69 0 -72 -9 -4 -15 56 -4 157 -35 157 -48 0 -5
-10 -6 -22 -3 -115 33 -158 39 -183 28 -26 -12 -64 -80 -65 -116 0 -15 5 -17
34 -12 39 8 82 -7 164 -57 43 -26 52 -36 52 -59 0 -33 -10 -35 -36 -7 -46 51
-104 81 -167 86 -46 3 -58 2 -47 -6 8 -6 27 -11 41 -11 15 0 32 -7 39 -15 15
-18 25 -95 16 -129 l-6 -25 -72 25 c-39 13 -80 32 -90 41 -17 15 -18 15 -13 0
5 -12 0 -18 -19 -23 -13 -3 -30 -3 -35 1 -14 8 32 99 65 130 28 26 119 213
159 328 l28 78 29 -28 c27 -26 28 -28 8 -35z m274 -104 c-9 -55 -20 -121 -25
-149 -15 -86 12 -246 61 -360 11 -25 17 -45 15 -45 -2 0 -18 20 -35 45 -44 64
-70 146 -78 245 l-7 85 -33 -92 c-19 -51 -35 -93 -37 -93 -8 0 8 346 17 362
13 26 132 122 136 110 1 -5 -5 -54 -14 -108z m-294 -95 c22 -8 22 -8 -7 -4
-25 3 -33 0 -38 -15 -7 -24 1 -40 20 -40 8 0 29 -13 47 -29 35 -30 70 -51 87
-51 5 0 12 24 14 53 l3 52 2 -53 c2 -39 -2 -54 -13 -58 -16 -6 -93 35 -115 60
-7 10 -28 16 -51 16 -33 0 -39 3 -39 21 0 52 31 69 90 48z m57 -15 c-3 -3 -12
-4 -19 -1 -8 3 -5 6 6 6 11 1 17 -2 13 -5z m883 -78 c0 -23 -61 -126 -75 -126
-7 0 -22 -3 -32 -6 -10 -4 2 8 25 25 56 41 49 49 -12 15 -26 -14 -50 -23 -54
-20 -10 11 36 91 76 132 l36 37 18 -23 c10 -12 18 -28 18 -34z m356 -126 c-14
-17 -26 -38 -26 -46 0 -17 -12 -18 -27 -3 -15 15 0 55 35 92 26 27 27 27 36 8
7 -15 2 -27 -18 -51z m-66 22 c0 -5 -7 -17 -15 -28 -14 -18 -14 -17 -4 9 12
27 19 34 19 19z m-465 -21 c3 -5 1 -12 -5 -16 -5 -3 -10 1 -10 9 0 18 6 21 15
7z m426 -124 c-13 -13 -15 1 -4 30 7 17 8 17 11 -1 2 -10 -1 -23 -7 -29z
m-1331 6 c11 -10 -28 -58 -64 -78 -21 -12 -45 -33 -54 -48 -11 -18 -25 -27
-42 -27 -15 0 -66 -13 -115 -30 -49 -16 -91 -30 -94 -30 -3 0 19 25 49 56 68
69 137 118 170 120 69 3 70 4 70 28 0 23 3 24 38 19 20 -3 39 -8 42 -10z
m1639 -50 c19 -75 21 -108 8 -133 -7 -14 -19 -25 -27 -25 -35 0 -54 143 -23
177 23 26 31 23 42 -19z m-1585 19 c9 -15 -24 -51 -64 -72 -21 -11 -48 -32
-59 -46 -15 -20 -25 -24 -32 -17 -20 20 -4 48 41 69 25 12 56 34 69 48 26 27
36 32 45 18z m183 -109 c-2 -16 -4 -3 -4 27 0 30 2 43 4 28 2 -16 2 -40 0 -55z
m1257 43 c-3 -7 11 -85 30 -173 34 -151 45 -253 29 -253 -5 0 -23 62 -42 138
-19 75 -40 158 -48 183 l-13 47 -45 -6 c-30 -3 -45 -1 -45 7 0 6 18 11 43 11
48 0 59 6 76 38 13 24 24 30 15 8z m-1267 -198 c-2 -24 -4 -5 -4 42 0 47 2 66
4 43 2 -24 2 -62 0 -85z m657 78 c21 -9 49 -16 62 -16 14 0 25 -8 29 -20 9
-29 -2 -40 -43 -40 l-37 -1 25 -14 c14 -8 41 -15 60 -15 19 0 46 -9 60 -20 25
-20 25 -20 3 -20 -39 0 -223 91 -223 110 0 10 -3 33 -7 51 -6 33 -5 33 13 17
10 -9 36 -23 58 -32z m681 24 c18 -19 17 -20 -3 -20 -15 0 -22 6 -22 20 0 11
2 20 3 20 2 0 12 -9 22 -20z m-1697 -62 c3 -54 1 -58 -25 -71 -15 -8 -40 -17
-55 -21 -25 -6 -27 -8 -15 -26 10 -18 8 -23 -18 -44 -35 -28 -32 -34 25 -44
l43 -7 -57 -24 c-31 -12 -56 -24 -56 -26 0 -2 4 -15 10 -30 9 -25 10 -25 35
-9 33 21 42 12 21 -20 -25 -39 -20 -46 30 -46 30 0 44 -4 42 -12 -5 -13 -95
-41 -113 -34 -7 2 -15 25 -17 51 -3 25 -8 48 -11 51 -4 4 -145 -25 -199 -42
-12 -4 -21 8 -36 48 -35 96 -36 112 -6 147 17 20 30 28 34 22 4 -8 19 -7 49 4
56 19 71 19 43 -1 -13 -9 -22 -26 -22 -40 0 -14 -4 -33 -10 -43 -7 -14 -5 -23
9 -35 17 -15 21 -15 64 4 26 12 47 22 47 24 0 2 -12 25 -27 51 -15 27 -22 45
-16 42 6 -4 16 -20 23 -37 17 -40 26 -38 28 7 2 47 29 85 70 98 17 6 35 14 39
19 12 12 -87 -3 -119 -19 -15 -7 -29 -10 -32 -7 -13 12 -5 60 12 75 29 26 123
56 167 54 l40 -2 3 -57z m-276 -46 c3 8 7 6 11 -6 4 -9 3 -15 -2 -12 -5 3 -11
-3 -14 -14 -3 -11 -10 -20 -16 -20 -15 0 -25 26 -17 46 5 13 9 14 20 5 11 -9
15 -9 18 1z m625 -175 c-2 -23 -3 -1 -3 48 0 50 1 68 3 42 2 -26 2 -67 0 -90z
m170 56 c46 -31 83 -63 83 -70 0 -18 -7 -13 -92 54 -37 29 -69 49 -72 44 -3
-4 -4 -53 -2 -107 1 -54 0 -110 -4 -124 -14 -48 -31 54 -29 166 3 122 -6 119
116 37z m1880 -45 c60 70 61 45 2 -32 l-52 -66 -61 57 c-33 31 -67 62 -75 69
-12 11 -12 16 -1 28 11 14 21 8 80 -44 l67 -60 40 48z m-2020 -265 c-3 -10 -5
-4 -5 12 0 17 2 24 5 18 2 -7 2 -21 0 -30z m-34 -95 c-17 -18 -35 -42 -41 -53
-6 -11 -12 -14 -12 -8 0 13 67 93 78 93 3 0 -8 -15 -25 -32z m3724 -169 l80
-146 23 -217 c13 -119 20 -219 16 -223 -9 -10 -116 -21 -121 -12 -4 5 -62 470
-80 634 -3 28 -8 68 -11 90 -8 55 0 44 93 -126z"/>
<path d="M1355 5245 c8 -37 12 -42 26 -28 7 7 3 17 -11 34 l-21 24 6 -30z"/>
<path d="M1263 4963 c-10 -4 -10 -9 1 -25 13 -19 13 -25 -6 -57 l-21 -36 36
-78 c20 -42 40 -77 44 -77 5 0 17 16 26 35 l17 36 -46 49 c-41 44 -45 51 -31
65 18 17 31 70 22 85 -7 11 -22 12 -42 3z"/>
<path d="M1140 4781 l0 -120 -35 6 -35 6 0 -49 c0 -27 -3 -79 -7 -116 -3 -38
-2 -68 3 -68 5 0 28 28 51 63 l42 62 6 125 c3 69 8 144 10 168 4 37 2 42 -15
42 -19 0 -20 -7 -20 -119z"/>
<path d="M1180 3217 c-14 -7 -26 -21 -28 -31 -4 -16 0 -18 35 -12 45 9 58 19
50 40 -8 19 -24 20 -57 3z"/>
<path d="M1892 6795 c-46 -25 -97 -54 -113 -66 l-29 -20 10 27 c18 47 2 38
-24 -15 -15 -28 -24 -51 -21 -51 2 0 28 15 57 34 29 18 88 52 130 75 72 40
101 61 81 61 -4 0 -45 -20 -91 -45z"/>
</g>
</svg>
