<?xml version="1.0" encoding="UTF-8" standalone="no"?>
<svg
   id="templatesarea.com"
   width="621"
   height="621"
   viewBox="0 0 621 621"
   version="1.1"
   sodipodi:docname="jokers-iconic-head-image-svg-cut-file.svg"
   inkscape:version="1.2.1 (9c6d41e410, 2022-07-14)"
   xmlns:inkscape="http://www.inkscape.org/namespaces/inkscape"
   xmlns:sodipodi="http://sodipodi.sourceforge.net/DTD/sodipodi-0.dtd"
   xmlns="http://www.w3.org/2000/svg"
   xmlns:svg="http://www.w3.org/2000/svg"
   xmlns:rdf="http://www.w3.org/1999/02/22-rdf-syntax-ns#"
   xmlns:cc="http://creativecommons.org/ns#"
   xmlns:dc="http://purl.org/dc/elements/1.1/">
  <title
     id="title1183">Joker's Iconic Head Image as SVG Cut File</title>
  <defs
     id="defs35" />
  <sodipodi:namedview
     id="namedview33"
     pagecolor="#ffffff"
     bordercolor="#000000"
     borderopacity="0.25"
     inkscape:showpageshadow="2"
     inkscape:pageopacity="0.0"
     inkscape:pagecheckerboard="0"
     inkscape:deskcolor="#d1d1d1"
     showgrid="false"
     inkscape:zoom="1.310789"
     inkscape:cx="310.88145"
     inkscape:cy="310.88145"
     inkscape:window-width="1920"
     inkscape:window-height="1001"
     inkscape:window-x="-9"
     inkscape:window-y="-9"
     inkscape:window-maximized="1"
     inkscape:current-layer="templatesarea.com" />
  <g
     id="g26">
    <path
       d="m367.53,443.42c12.03,8.74,25.59,13.92,40.02,17.73-4.36,4.15-23.67-.5-33.98-9.34-2.6-2.44-5.12-4.7-6.05-8.39Z"
       style="fill: #e81e00;"
       id="path2" />
    <path
       d="m426.12,328.23c.5.57,1.09,1.09.92,2.01-.8.88-1.63.29-2.27-.13-18.75-12.02-31.41-27.9-32.2-51.21-.03-.74.08-1.5.18-2.24.02-.13.27-.23.82-.68,2.2,3.74,2.66,8.07,4.66,11.97,5.16,12.48,13.24,22.79,21.61,32.9,2.06,2.49,4.19,4.92,6.28,7.37Z"
       style="fill: #e81e00;"
       id="path4" />
    <path
       d="m373.13,314.39c-8.92,3.82-17.17,8.97-25.83,13.32-15.12,7.61-31.23,10.44-48.26,10.51-22.7.68-44.73-3.19-66.95-5.48,1.03-1.46,2.36-1.53,3.6-1.64,8.84-.79,17.65-.08,26.43.79,21.8,2.16,43.57,3.61,65.13-2.01,9.14-2.38,17.73-6.22,26.48-9.68,5.38-2.15,10.77-4.26,16.18-6.34,1.26-.49,2.58-.95,3.95-.69.16.84-.32,1.04-.74,1.22Z"
       style="fill: #e81e00;"
       id="path6" />
    <path
       d="m356.05,450.59c-.65,1.87-.25,3.57-.27,5.27,0,.74.14,1.61-.92,1.76-.79.11-1.36-.47-1.43-1.12-.31-2.43-.8-4.9-.62-7.31.17-2.21,3.96-3.01,6.71-1.55-.46,1.71-2.4,1.67-3.47,2.94Z"
       style="fill: #e81e00;"
       id="path8" />
    <path
       d="m343.21,295.87c.82-.3,1.68-1.04,2.78-.04-1.32,1.71-3.46,2.15-5.24,3.46-7.96,4.7-15.69,9.42-24.42,12.07-14.3,4.36-28.86,4.28-43.47,1.99-2.93-.46-6.01-.53-8.7-2.78,2.63-.15,5.27-.4,7.92-.45,7.41-.11,14.81-.19,22.23-.58,12.82-.67,24.81-4.45,36.62-9.05,4.07-1.58,8.17-3.1,12.27-4.61Z"
       style="fill: #e81e00;"
       id="path10" />
    <path
       d="m398.06,374.49c.92-1.66,1.42-3.61-.69-4.71-2.78-1.47-8.96,2.12-9.19,5.3-.31,4.1-2.56,6.64-6.15,8.12-.44.18-.86.31-1.26.39-2.84.58-5.07-.98-7.14-2.99-.74-.73-1.56-1.76-2.66-1.33-3.03,1.19-6.12,2.28-9.16,4.45,6.32,3.65,12.59,3.85,19.4,2.67.35-.07.7-.14,1.05-.2,1.26-.42,2.55-.79,3.79-1.26,5.25-2.03,9.25-5.55,12.01-10.44Zm26.47-39.94c1.03,8.2-.64,15.39-2.78,22.9,3.22-1.42,4.28-4.28,6.39-6.3,1.9,1.64,1.3,3.62,1.01,5.35-1.38,8.21-6.05,13.95-13.45,17.6-1.39.69-3.14.91-3.94,2.68,1.04,1.8,2.72,2.27,4.59,2.2,1.7-.06,3.4-.29,5.09-.5,1.9-.23,2.68.39,2.21,2.41-3.06,13.26-16.8,26.94-30.46,28.13-6.34.54-12.65,1.26-19.01,1.68-1.12.07-2.22.32-3.36.76,8.29,2,16.78,2.69,25.59,3.98-1.71,1.9-3.46,1.86-5.11,1.95-11.62.69-22.69-1.43-33.19-6.51-2.14-1.03-4.3-2-6.44-3.06-3-1.49-3.22-1.44-4.08,1.7-1.92,7.14-2.66,14.34-1.21,21.67.11.56.14,1.14.22,1.95.62,4.31,1.72,8.32,1.86,12.95-1.87-1.01-2.14-2.49-2.57-3.73-3.02-8.73-4.42-17.84-5.97-26.91-1.07-6.29-1.07-12.66-1.76-18.99-.45-4.18-2.86-7.59-5.61-10.69-1.7-1.92-3.46-3.78-5.15-5.72-.85-.99-1.55-2.09-1.54-3.51,1.54-.51,2.34.49,3.21,1.1,3.25,2.31,6.54,4.57,9.67,7.05,2.23,1.76,3.68,1.67,5.61-.63,4.4-5.22,9.13-10.15,13.78-15.25,1.59.81,1.01,2.86,2.41,3.97,4.74-5.42,8.99-11.19,13.64-17.21,2.63,3.41-1.81,5-1.23,7.96,6.36-6.71,12.54-13.23,18.92-19.95.95,2.37-1.06,3.41-1.01,5.25,3.28-1.37,5.84-3.63,8.64-5.5,3.09-2.08,3.03-2.1,4.57,1.3.5,1.08.63,2.41,2.09,3.41,5.9-4.35,11.88-8.75,18.38-13.54Zm-52.47,60.08c.03-.24.07-.49.12-.72-3.69-.55-7.37-1.1-11.51-1.77-1.03-.23-2.06-.56-3.86.29,5.62.81,10.43,1.51,15.25,2.21Z"
       style="fill: #e81e00;"
       id="path12" />
    <path
       d="m316.5,463.74c.76,1.65.08,2.82-1.26,2.01-3.33-2.02-6.3-4.57-8.6-7.89,4.9-.88,7.03,2.91,9.86,5.89Z"
       style="fill: #e81e00;"
       id="path14" />
    <path
       d="m285.65,476.8c4.64-5.52,9.77-10.62,14.15-16.39.34-.44.73-.9,1.51-.72.92.9.24,1.93-.04,2.84-1.14,3.54-1.75,7.18-2.37,10.84l-2.92-.45c-4.79,4.93-8.83,10.19-12.6,15.66-3.78,5.49-6.14,11.6-7.77,18.13-1.78-3.44-.89-6.91-.33-10.21,1.3-7.63,5.48-13.89,10.37-19.69Z"
       style="fill: #e81e00;"
       id="path16" />
    <path
       d="m305.3,489.64c-6-4.01-10.59-8.48-9.32-16.72l2.92.45c-1.02,5.96,3.7,12.69,10.4,11.86,8.38-1.05,15.25,2,20.31,8.5,5.55,7.14,12.7,5.75,19.89,3.12,3.33-1.21,4.91-4.33,5.49-7.54,1.31-7.22,5.21-12.95,9.72-18.41,1.88-2.27,3.64-4.6,5.01-7.25,1.55-3.03,2.33-6,.71-9.24-.33-.65-.58-1.42-.15-2.18,2.77.75,5.28,5.57,4.53,8.64-.06.28-.15.56-.27.82-5.68,11.43-7.79,23.72-8.83,36.29-.13,1.52.01,3.52-2.52,4.36-.85-5.28-.07-10.42-.24-15.82-1.57,1.52-1.9,3.23-2.02,4.84-.82,11.66-7.45,13.58-15.35,14.47-3.57.39-7.21.12-10.83.12-2.19.01-3.75-1.17-5.1-2.74-2.86-3.31-5.85-6.49-9.62-8.83-.42-.27-.81-.84-1.57-.47.28.33.52.61.88,1.01,4.08,3.85,7.79,7.78,10.22,12.73.82,1.67,1.57,3.35,1.42,5.31-1.57.01-2.06-1.04-2.66-1.84-6.4-8.54-14.24-15.58-23.06-21.47Z"
       style="fill: #e81e00;"
       id="path18" />
    <path
       d="m282.68,404.32c-2.7-1-5.14.07-7.53-.16-2.66-.25-4.11.58-5.1,3.22-1.24,3.28-3.97,4.94-7.59,5.04-3.36.1-5.91-1.08-7.3-4.31-1.26-2.95-3.76-3.55-6.62-3.18-1.81.24-3.91.68-4.39,2.6-.44,1.76,1.41,2.77,2.74,3.62,1.34.86,2.8,1.61,4.32,2.12,3.72,1.26,7.45,1.86,11.28,1.78,3.12-.05,6.31-.56,9.58-1.51,4.55-1.81,8.04-4.79,10.59-9.23Zm-9.56-19.78c-.53-1.17-2.97-1.73-1.68-3.36,1.04-1.3,2.41.32,3.53.83,8.31,3.78,16.57,7.64,24.86,11.46.85.39,1.73.7,2.82,1.14,1.52-3.41,1.17-7,1.89-10.37.21-.99-.07-2.41,1.32-2.45,1.4-.04,1.34,1.37,1.4,2.38.88,13.16,5.58,25.32,9.8,37.62,3.96,11.54,5.6,23.63,7.73,35.58.49,2.76.7,5.8-1.08,8.57-1.73-.82-1.77-2.22-1.98-3.46-1.72-10.61-4.07-21.07-7.48-31.28-.57-1.7-1.3-3.36-2.01-5.01-.7-1.64-1.9-2.86-3.75-2.22-1.74.59-1.41,2.39-1.15,3.72.84,4.08,1.41,8.23,2.83,12.19.35.96.91,1.91.34,3.12-1.52-.21-2.41-1.4-3.46-2.26-7.65-6.24-13.28-6.48-21.47-.91-5.98,4.05-11.75,8.39-18.28,11.59-5.38,2.63-10.99,3.59-16.88,3.16-1.27-.1-2.67-.15-3.45-1.5.67-.93,1.66-.93,2.57-1.13,2.85-.58,5.46-1.71,7.63-3.67,4.24-3.85,3.45-7.66-1.98-9.58-4.47-1.58-8.96-3.16-13.47-4.64-13.87-4.56-24.65-12.9-31.68-25.82-1.17-2.16-2.52-4.26-2.69-7.27,5.95,1.27,11.17,4.23,17.45,5.92-1.94-3.03-4.69-4.03-7.05-5.8-8.95-5.62-18.38-9.82-27.89-13.61.17-1.58,1.15-1.55,1.92-1.76,3.7-.98,7.2-2.39,10.42-4.52,3.37-2.22,7.25-2.74,11.18-2.8,4.06-.06,8.13-.01,12.39-.01-.81-1.65-2.92-1.67-3.85-4.18,9.73,2.16,18.84,4.18,27.93,6.19.1-.22.18-.45.27-.67-2.77-1.54-5.59-3.01-8.3-4.63-1.2-.72-3.59-1.22-2.72-3.01.91-1.87,2.7-.12,3.92.41,9.17,3.94,18.28,8,27.43,11.97.82.36,1.64,1.05,2.67.61.01-.2.08-.4.02-.54Zm12.74,29.07c1.01-.7,2.15-1.26,3.26-2.94-5.4,1.91-8.98,5.35-12.91,8.24,3.1-1.7,6.19-3.4,9.65-5.3Z"
       style="fill: #e81e00;"
       id="path20" />
    <path
       d="m187.76,270.91c6.17,14.85,11.45,29.96,12.93,46.15,1.07,11.78.35,23.32-3.87,34.51-3.39,8.98-7.47,17.69-10.1,26.94-1.53,5.38-2.4,10.79-1.78,16.16l-2.97.52c-1.49-7.36.37-14.31,2.5-21.22,2.45-7.99,4.72-16.05,7.5-23.93,4.78-13.51,5.41-27.36,3.4-41.33-1.8-12.52-5.34-24.67-9.13-36.74-.34-1.06-1.09-2.17-.48-3.45,1.37.36,1.61,1.46,2.01,2.38Z"
       style="fill: #e81e00;"
       id="path22" />
    <path
       d="m463.53,330.01c2.46-12.2-16.96-43.35-28.35-45.81.18.38.29.76.52,1.04,5.81,7.04,11.63,14.07,17.68,21.43,5.18,6.98,8.5,14.79,10.15,23.34ZM326.46,55.85c-6.75-.38-13.47-1.58-20.29-.89,1.75.67,3.54,1.22,5.37,1.47,13.54,1.81,27.04,3.9,40.75,4.39,9.15.33,18.23.2,27.28-.96,6.48-.83,12.81-2.48,19.18-6.52-1.18.24-1.53.29-1.87.39-9.91,2.95-20.07,4.04-30.36,4.29-13.23.32-26.36-1.13-40.04-2.17Zm28.42,180.95c-1.53-.89-3.19-1.55-4.78-2.33-.12.24-.23.49-.36.72,7.39,4.98,14.35,10.59,22.11,14.99,7.22,4.09,12.18,2.86,17.67-4.02.54-.78,1.08-1.56,1.64-2.34,3.87-5.4,7.27-11.13,11.9-15.98,3.12-3.26,6.58-4.27,10.79-2.48,1.43.62,2.92,1.09,4.82,1.78-3.34-5.03-10.79-6.02-15.39-2.41-3.08,2.42-5.51,5.48-7.86,8.61-3.23,4.33-6.22,8.87-9.84,12.92-2.97,3.33-5.21,4.15-10.76,2.14-1.68-.61-3.22-1.61-4.77-2.54-5.07-3.01-10.08-6.09-15.16-9.07Zm-20.48-12.1c-.69,2.19-1.73,4.3-1.25,6.92,9.85-25.79,29.44-35.26,56.4-33.53-17.4-5.88-44-.84-55.14,26.61Zm33.04,305.69c-8.54,1.71-17.06,3.41-26.35,5.27,9.3,1.63,17.58,1.91,25.34-3.7.38-.49,1.05-.81,1.01-1.57Zm62.47-320.73c-.93-.32-1.88-.73-3-.1,1.25,1.27,2.71,1.77,4.1,2.34,14.09,5.73,28.31,11.05,42.84,15.61,5.96,1.88,12.11,2.38,18.28,2.44,5.82.06,11.32-1.31,16.43-5.1,1.78-1.37,3.54-2.76,4.79-4.95-1.36-.07-2.01.69-2.72,1.22-7.39,5.55-15.64,7.35-24.74,5.98-8.52-1.29-16.55-4.22-24.67-6.88-10.45-3.44-20.88-7.03-31.31-10.56ZM120.29,382.36c-.14-8.37-2.91-16.48-1.18-25.28.59-4.35,1.19-8.7,1.84-13.48-7.14,6.18-7.47,34.24-.66,38.76Zm6.81-183.38c-2.95.95-5.9,1.89-8.89,2.85,19.57,1.98,45.2-23.14,48.78-39.31-2.82,3.85-5.57,7.72-8.45,11.5-8.28,10.85-18.27,19.56-31.44,24.97Zm-18.56,76.07c-2.72,2.26-5.46,4.49-7.64,8.09,3.1-2.24,5.65-4.23,8.34-5.99,9.36-6.12,19.73-10.17,29.9-14.66,4.35-1.92,8.97-3.34,12.82-6.34-3.31.81-6.57,1.78-9.77,2.88-11.71,4.01-23.33,8.17-33.65,16.03Zm32.78,12.85c-6.31,4.4-13.46,6.63-20.97,7.93,14.69,1.56,29.43-6.43,33.86-18.45-4.47,3.51-8.03,7.49-12.89,10.53Zm36.48-83.2c-7.89,6.7-15.77,12.25-25.53,15.46-14.05,5.04-28.44,4.48-43.6,2.24,17.97,10.98,59.56.31,69.13-17.7Zm-51.78,49.66c-10.65,7.07-21.99,12.37-34.9,13.7-.7.07-1.52.1-2.1,1.44,9.08-.05,17.33-2.41,25.78-5.93,22.46-9.91,39.85-26.56,57.35-43.07-.42.04-.72.25-1.02.47-15.08,11.08-29.49,23.03-45.1,33.39Zm33.1,107.35c.91-3.64.54-7.2-.53-11.47-1,4.41-1.89,8.09-2.67,11.77-1.97,9.33-5.08,17.93-14.04,23-.06.04-.01.29-.01.66,11.02-4.08,15.55-12.71,17.24-23.96Zm294.95-124.79c-1.33-.52-2.63-1.19-4.21-.9,9.83,6.36,20.46,10.96,31.95,14.78,18.66,5.91,35.72,7.68,41.78,4.36-.15-.1-.3-.27-.45-.27-1.04-.03-2.08-.07-3.12-.03-8.32.34-16.44-.69-24.46-3.02-14.14-4.11-27.79-9.57-41.49-14.92Zm48.52,58.56c-2.72-2.14-5.08-3.3-8.01-4.32-2.56-.7-5.09-1.55-7.68-2.05-14.29-2.79-28.35-6.28-41.18-13.5-.49-.28-1.07-.85-1.76-.3-.04.75.57.97,1.01,1.3,6.49,4.93,13.67,8.51,21.43,10.95,7.45,2.35,15.16,3.37,22.83,4.6,4.31.69,8.48,1.97,13.37,3.33Zm4.54-17.16c-1.41-7.35-2.58-8.69-8.9-10.21-2.03-.49-4.12-.66-6.17-1.03-11.15-2.02-21.9-5.57-32.82-8.45-1.32-.35-2.66-.59-4.46-1,1.02,1.39,2.05,1.67,2.95,2.11,12.61,6.15,25.92,9.74,40.34,11.16,4.16.65,6.92,3.18,9.06,7.42ZM299.39,39.69c-1.84-1.09-3.77-1.78-5.77-2.17-14.56-2.74-29.14-3.75-43.88-1.25-18.73,3.17-35.66,9.87-49.28,24.26-6.58,7.45-11.75,15.56-12.4,25.84.29-.25.48-.57.57-.91,2.42-9.02,6.91-16.84,13.67-23.31,19.92-19.05,44.26-25.23,71.01-24.13,8.69.36,17.37,1.1,26.06,1.68Zm-146.36,271.79c-7.3,4.6-15.65,5.48-23.89,6.76-5.16.81-10.35,1.57-15.08,4.08,8.99-.63,17.97-1.2,26.8-3.03,4.99-1.03,9.33-3.14,12.63-7.52-.06-.13-.12-.27-.2-.37-.02-.02-.18.04-.25.08Zm1.91-142.95c7.97-11.75,14.22-28.14,12.75-34.2-5.84,15.39-13.04,29.7-21.67,43.33,3.95-1.99,6.19-5.51,8.92-9.13Zm326.03,183.25c-3.65-4.54-3.56-9.58-3.51-14.64.04-4.47-.67-8.89-1.82-13.19-.74-2.78-1.34-5.76-3.21-8.11-.25.06-.52.13-.78.2.53,4.92,1.07,9.84,1.63,15.28.22,1.77.44,3.56.69,5.34.46,3.27.57,6.61,1.7,9.76,1.08,3.05,2.35,4.44,5.29,5.34Zm38.15-183.1c-.72-1.89-2.07-2.93-3.46-3.92-6.22-4.43-13.17-7.18-20.51-9.04-15.17-3.85-30.64-4.15-46.16-3.46-2.87.13-5.72.84-8.57,1.27,0,.18.01.36.01.55,8.3.23,16.6.47,25.45.72,18.6,1.29,36.97,3.45,53.25,13.88Zm-349.54,226.61c-.49-2.18-.91-4.41-2.45-6.83.34,4.87.65,9.18,1.04,14,.83,8.58,2.79,17.25-1.74,25.55,3.26-2.15,4.55-5.26,5.23-8.8,1.55-8.18-.29-16.05-2.07-23.93Zm-7.76-15.42c-.08-.76.48-1.66-.58-2.43-4.75,8.24-9.55,16.38-18.95,21.37,8.96-.76,16.39-8.15,19.54-18.93Zm-8.86-240.45c-1.39,4.42-2.77,8.84-4.15,13.26,7.34-11.37,10.31-24.37,14.64-36.87-2.86,2.74-4.32,6.23-6.01,10.09-1.87,4.38-3.04,8.99-4.47,13.51Zm272.14-1.82c-11.63,1.81-23.28,1.46-34.92.21-18.04-1.92-35.16-7.04-51.53-14.76-12.23-5.75-25.04-8.62-38.57-8.8-21.1-.29-40.36,5.42-57.65,17.48-10.39,7.26-18.57,16.41-22.26,28.92.5-.64.87-1.36,1.23-2.09,3.76-7.6,8.68-14.28,15.42-19.53,9.45-7.34,19.67-13.28,31.03-17.15,14.99-5.09,30.25-6.2,46.27-3.06,9.32,1.67,18.18,4.76,26.76,8.66,5.73,2.6,11.64,4.65,17.6,6.57,20.36,6.51,41.15,7.82,62.26,5.16,3-.37,5.96-.99,8.95-1.49-.83-.4-1.58-.44-2.34-.39s-1.51.15-2.26.27Zm-88.81-52.53c-30.87-11.42-61.87-9.42-93.34-.25-10.87,3.81-21.3,8.41-30.61,16.54,39.66-22.1,80.91-26.01,123.95-16.29Zm-203.51,261.73c-4.08,5.33-7.47,10.98-7.04,18.11.4,6.86,7.05,12.37,13.91,11.24-2.16-1.12-4.42-1.87-6.54-3.7-3.97-3.1-5-7.12-3.87-11.92.66-2.8,1.76-5.39,3.06-7.93,2.58-5.09,6.52-9.24,10.13-14.41-4.4,2.19-7.13,5.31-9.64,8.6ZM447.58,85.41c-2.22-3.63-5.62-5.6-9.26-7.94-13.1-7.31-36.98-9.56-42.71-3.76,18.85-2.42,36.16,1.13,51.98,11.7ZM146.16,233.61c-1.32.3-2.7.62-4.54,1.05-7.92,1.89-15.84,2.83-23.91.82-4.72-1.16-8.9-3.45-13.39-6.28,8.61,13.79,34.52,11.81,41.83,4.41Zm245.65-125.34c-4.01-.18-7.95.18-11.89.98,11.56,1.09,23.04,2.34,34.31,5.2,11.33,2.87,21.81,7.72,32.4,13.44,12.82,6.88,24.96,15.19,39.24,19.44.03-1-.54-1.08-.91-1.26-11.87-6.05-23.09-13.21-34.6-19.86-18.13-10.49-37.49-16.95-58.54-17.93Zm11.9,393.38c-.93.31-1.57.48-2.18.71-7.96,3.04-11.89,9.24-13.81,17.2-5.33,22.1-20.13,32.13-41.33,33.13-9.15.44-17.86-2.02-26.71-5.55-10.79-6.12-22.66-8.68-34.65-10.06.02.06.15.32.34.55,9.41,10.84,18.91,21.57,31.08,29.56,11.77,7.73,24.45,12.18,38.66,10.85,9.66-.9,17.73-4.96,23.82-12.89,5.32-6.93,8.33-14.87,11.26-22.91,4.35-11.87,7.61-24.09,12.09-35.9.55-1.43,1.39-2.82,1.42-4.7Zm111.28-178.5c-14.81-7.55-29.62-15.11-44.42-22.65,1.25,2.86,3.86,4.05,6.39,5.95,11.63,7.9,24.11,13.92,38.04,16.7Zm-44.57-123.83c-4.54-.38-9.07-.56-13.54-1.3-15.93-2.61-30.61-8.79-45.3-16.15-1.29-.63-2.57-1.24-3.86-1.87-20.95-10.35-41.55-21.43-63.11-30.51-20.86-8.79-42.42-13.82-65.26-11.03-13.83,1.69-25.64,7.35-34.7,18.2-5.73,6.86-9.54,14.67-11.39,23.43.52-.68.85-1.44,1.2-2.2,2.9-6.3,5.68-12.69,10.15-18.09,10.73-13.06,24.89-19.15,41.49-19.3,21.41-.21,41.7,5.41,61.41,13.29,18.48,7.38,36.01,16.71,53.6,25.95,17.9,9.39,36.38,17.32,56.6,20.27,4.26.63,8.51.44,12.71-.68Zm-299.13-17.34c-2.55,3.74-5.21,7.41-8.14,10.84-13.3,15.6-29.57,23.5-50.93,19.12-2.42-.48-4.86-.96-7.88-1.55,27.22,14.98,59.32-4.3,66.96-28.41Zm-62.6,172.32c.85-1.29.82-2.76.65-4.12-.88-7.22,3.01-11.44,8.94-14.36,2.29-1.14,4.64-2.19,7.04-3.08,8.01-3.01,16.31-5.12,24.53-7.47,1.29-.37,2.74-.48,3.98-1.81-2.52-.76-4.53.56-7.12.62-6.08,1.49-12.32,2.37-18.25,4.45-6.66,2.35-13.21,5-18.37,10.03-4.47,4.36-5,11.27-1.4,15.75Zm74.27,76.35c.82-10.02-1.73-19.19-7.3-27.75,1.54,9.49,4.81,18.52,7.3,27.75Zm106.99-365.85c-12.28-1.97-24.59-3.68-37.08-3.41-13.82.3-26.64,3.75-38.4,12-9.41,7.12-16.72,17.57-16.85,24.46,1.07-1.82,2.06-3.31,2.89-4.91,4.28-8.26,10.65-14.48,18.61-19.13,11.9-6.93,24.95-9.4,38.5-9.87,8.56-.31,17.07.54,25.58,1.2,2.82.22,5.62.45,8.6.67-.49-1.04-1.24-.9-1.86-1Zm84.65,16.19c-6.07-1.78-12.3-3.11-18.72-3.09.58.41,1.19.68,1.82.87,16.98,5.21,33.96,10.42,50.94,15.6,13.63,4.14,27.1,8.82,40.9,12.41,7.05,1.84,13.29,1.34,17.47-1.42-9.82,1.63-19.06-.7-28.22-3.8-9.53-3.23-19.12-6.31-29.11-9.6-11.69-3.67-23.33-7.49-35.08-10.95ZM75.1,343.4c-8.43-4.67-12.49-14.79-9.59-23.94,2.65-8.38,7.48-15.56,12.95-22.32,3.46-4.28,7.2-8.34,10.78-12.54,1.03-1.21,2.02-2.51,2.12-4.41-2.06-.63-4.12-.44-6.17-.32-4.1.25-8.18.19-12.13-1.08-8.43-2.73-12.39-9.59-11.85-18.27.14-2.29-.08-4.78,1.26-6.91,1.78-.28,2.9.97,4.2,1.65,12.49,6.49,26.65.35,30.34-13.1.76-2.78.17-5.26-.87-7.75-3-7.19-6.37-14.23-8.09-21.9-1.35-6.07-2.39-12.17-.82-18.32,1.54-6.01,5.5-9.83,11.36-11.75.71-.23,1.44-.51,2.22.05.68,1.18-.19,2.12-.59,3.13-1.05,2.55-2.15,5.1-2.04,7.94.1,2.73,1.48,4.27,4.2,4.43,10.4.58,22.67-3.97,27.5-16.65,4.45-11.68,7.15-23.82,10.33-35.84,2.95-11.21,6.9-21.95,14.64-30.89,4.02-4.64,8.67-8.62,13.95-11.67,4.99-2.87,7.01-6.95,8.1-12.49,6.05-30.94,24.37-51.78,53.66-62.78,11.42-4.28,23.55-4.73,35.73-3.94,24.37,1.57,47.67,8.16,70.98,14.78,16.64,4.73,33.48,7.95,50.89,6.54,11.08-.89,21.57-3.55,30.18-11.19.74-.67,1.56-1.71,2.7-1.05,1.08.62.66,1.87.66,2.88,0,6.62-3.31,11.51-8.13,15.63-2.22,1.9-4.38,3.88-6.62,5.86,1.07,1.08,2.27.67,3.34.65,6.28-.14,12.58-.23,18.79.59,10.95,1.47,19.4,7.3,26,16.01,2.8,3.71,5.47,7.54,9.38,10.26,8.82,6.13,18.37,5.57,26.4-1.57,2.26-2.01,4.19-4.33,6.22-6.67,1.67.99,1.64,2.5,1.84,3.84.98,6.76-1.27,12.48-5.55,17.64-3.11,3.75-6.68,6.98-10.83,9.84,1.56,2.17,3.55,3.62,5.32,5.3,6.83,6.47,13.73,12.88,20.52,19.39,10.33,9.89,17.53,21.92,23.61,34.71,6.75,14.21,15.89,26.78,26.13,38.62.67.78,1.59,1.4,1.53,2.8-1.93,1.05-3.62-.04-5.2-.89-3.11-1.68-6.36-2.97-9.64-4.26-1.99-.79-2.79-.33-3.89,1.66-7.22,13.17,2.25,33.83,17,40.14.53.22,1.05.45,1.58.66,2.05.82,2.17,1.84.45,3.24-3.35,2.75-7.15,3.36-11.27,2.62-2.44-.44-4.87-1.02-7.09-2.11-2.38-1.16-3.45-.21-4.27,1.97-3,7.95-.32,14.5,4.96,20.39,4.15,4.62,9.33,7.76,15.09,9.98,1.1.42,2.44.54,3.4,2.29-3.57,1.03-6.99,1.56-10.55,1.23-4.56-.42-8.94-1.71-13.36-2.82-2.59-.65-5.29-1.78-8.07-.14-.15,1.92,1,3.23,2.08,4.52,5.6,6.63,10.94,13.42,13.39,21.97.3,1.06,1.08,2.04.63,3.3-1.29.66-2.12-.35-3.07-.86-5.33-2.89-10.36-6.41-16.26-8.17-.82-.24-1.65-.49-2.49-.56-3.62-.31-5.21,1.42-4.5,4.96.69,3.46,2.03,6.73,3.35,9.99,2.38,5.9,4.96,11.71,6.46,17.94,1.58,6.52-.39,12.05-4.04,17.41-2.16-1.1-2.04-3.05-2.57-4.56-2.5-7.07-5.89-9.3-13.38-8.56-3.53.34-6.01,2.11-7.43,5.41-3.64,8.5,1.22,16.35,10.52,17.03,1.85.14,3.75.22,5.83,1.3-1.68,2.37-3.75,3.9-6,5.23-3.84,2.26-8.14,3.18-12.42,3.99-2.33.45-2.9,1.58-2.76,3.75.32,4.74,2.79,7.66,7.16,9.26,3.85,1.42,7.77,2.49,11.89,2.73.73.04,1.55-.1,2.41,1.38-6.62,4.49-13.93,5.3-21.67,4.96-8.33-.36-13.87-5.9-19.84-10.69-1.64,3.04-.86,5.82,2.05,8.69,2.22,2.19,5.16,3.34,8.43,5.27-3.17,1.52-5.75,1.03-8.26.58-7.6-1.36-13.92-5.46-20.12-9.72-2.82-1.92-5.48-4.06-8.24-6.13-1.06,1.02-.62,2.22-.63,3.28-.16,9.88.23,19.76-1,29.61-1.87,14.78-6.52,28.68-12.9,42.04-5.52,11.58-12.28,22.52-17.73,34.16-7.69,16.39-13.92,33.31-19.19,50.85-2.21,7.21-4.39,14.16-8.01,20.61-10.48,18.65-30.7,25.15-49.82,22.07-17.45-2.82-31.37-12.04-44-23.71-18.57-17.19-37.79-33.62-57.15-49.89-15.08-12.66-28.75-26.64-37.03-44.99-4.4-9.72-7.63-19.88-11.45-29.8-.19-.51-.41-1.01-.64-1.53-1,.32-1.14,1.14-1.42,1.81-2.09,4.88-5.72,8.46-9.83,11.62-.68.53-1.41,1.07-2.32.5-.89-.55-.81-1.49-.65-2.32.56-3,.71-6.02.62-9.07-.05-1.75-.47-3.4-1.35-4.9-2.08-3.48-5.74-4.01-8.54-1.26-6.28,6.12-16.86,7.61-24.63,3.42-.64-.34-1.43-.58-1.55-1.58.75-1.13,2.09-1.05,3.23-1.4,4.6-1.4,8.58-3.55,10.66-8.27,2.46-5.63-.17-10.45-6.25-11.23-6.54-.83-12,3.62-12.51,10.2-.13,1.68-.35,3.34-.57,5.41-3.55-2.46-5.81-5.27-5.86-9.43-.05-3.61.02-7.22-.01-10.85-.01-.93-.03-1.92-.31-2.8-.71-2.39-1.7-2.57-3.56-.9-1.76,1.58-2.87,3.85-5.1,4.92-1.03.49-2.05,1.02-3.12,1.34-1.31.38-2.87.55-3.71-.64-.92-1.34.53-2.21,1.31-3.09,6.01-6.81,5.3-18.58-1.52-24.83-2.19-2-3.97-1.49-4.81,1.39-1.18,4.05-1.02,8.28-1.67,12.4-.08.55-.01,1.16-.59,1.57-.91.3-1.34-.46-1.84-.98-5.29-5.45-7.36-12-6.79-19.54.44-5.88,1.99-11.55,3.02-17.88-6.27,2-11.86,1.03-17.19-2.37.47-1.35,1.7-1.51,2.66-1.94,3.56-1.6,7.14-3.19,10.26-5.56,8.72-6.6,8.11-20.23-1.1-25.61-2.32-1.35-4.77-1.77-7.39-1.65-2.62.14-4.23,1.51-4.98,3.94-1.97,6.34.46,12.44,6.26,15.86.86.51,2.01.7,2.49,2.28-5.72,2.12-11.28,2.09-16.62-.86Zm314.69-162.78c-12.6-3.98-25.13-3.98-37.95,1.03-25.88,10.95-40.25,41-38.61,54.25,1.27-2.03,1.35-4.37,1.93-6.56,7.68-28.87,30.65-47.12,60.66-48.52,4.67-.22,9.33.33,13.97-.2Zm129.07,7.81c-3.21-3.03-6.5-4.75-9.64-6.7-13.06-8.1-26.93-11.02-42.29-8.18-14.26,2.63-28.36,1.27-41.94-4.36-13.19-5.47-25.97-11.77-39.27-17.98-1.35-.42-2.54-1.68-4.29-.91.27,1.37,1.34,1.68,2.22,2.12,11.12,5.59,22.19,11.28,33.34,16.85,17.51,8.74,35.75,10.18,54.68,6.68,4.52-.83,9.05-.99,13.62-.44,8.19,1.01,15.46,4.5,22.73,8.06,3.36,1.64,6.59,3.57,10.83,4.84Zm-206.2-34.4c-8.54-3.04-16.53-1.75-24.25.61-19.17,5.85-32.32,18.55-40.55,37.13-4.7,11.7-6.31,28.07-2.88,34.07-1.75-20.2,4.5-37.05,17.54-51.31,13.25-14.49,29.92-21.27,50.14-20.51Zm-45.16,362.23c.55-1.82,1.1-3.63,1.67-5.45.23-.74.53-1.55,1.51-1.32.86.21,1.06,1,1.12,1.8.08,1.38-.41,2.62-.9,3.86-1.01,2.57-.38,4.92,1.2,6.96,2.26,2.92,5.21,4.98,8.82,5.98,3.19.88,3.88.45,4.18-2.9.19-2.29.44-4.55,1.49-6.62.37-.73.73-1.7,1.82-1.52.88.16,1.03,1,1.19,1.76.56,2.69,1.18,5.38,1.66,8.09.29,1.59.83,2.63,2.68,2.69,5.99.16,11.98-.11,17.92-.88,8.75-1.16,17.36-3.17,26-5.01,7.6-1.63,15.44-2.38,22.49-6.01,13.14-6.77,25.66-14.51,37.05-23.96,7.03-5.84,13.53-12.28,19.22-19.45,3.38-4.25,2.93-7.19-1.21-10.76-1.07-.93-2.22-1.78-3.3-2.71-.49-.41-1.13-.82-.47-1.93,3.65.88,6.41,4.14,10.67,4.73,0-4.11-.01-7.99,0-11.88,0-1.61-.69-3.53,2.21-3.56,1.06,0,1-1.46,1.03-2.38.07-2.75.03-5.51.15-8.27.04-1.16-.49-2.5,1-3.72,5.18,6.17,2.65,12.83,1.48,19.58.31-.39.52-.57.64-.81,7.79-16.43,12.45-33.62,12.74-51.88.13-7.89-.5-15.76-1.03-23.63-1.3-19.09-3.81-37.98-9.45-56.32-4.19-13.63-8.55-27.23-16.5-39.29-2.4-3.64-3.86-7.62-4.82-11.8-.87-3.79-1.56-7.63-2.42-11.42-1.07-4.72-2.17-9.43-3.39-14.11-.48-1.82-1.61-3.25-3.71-3.51-2.02-.25-3.1,1.04-4.15,2.46-1.71,2.34-2.68,5.03-3.75,7.67-1.5,3.7-2.72,7.51-4.75,10.98-2.66,4.54-6.31,5.69-11.07,3.52-5.47-2.5-10.44-5.82-15.21-9.48-3.03-2.31-6.06-4.61-9.4-6.44-4.47-2.44-7.75-2.04-11.41,1.42-1.52,1.44-3.08,2.87-4.36,4.52-6.34,8.14-15.37,10.43-24.91,11.34-15.84,1.5-31.01-1.92-45.88-6.93-16.86-5.66-31.29-15.01-42.63-28.89-16.55-20.29-29.13-42.87-38.61-67.23-.37-.98-.5-2.15-1.89-3.02-.1,5.71.53,10.98,1.25,16.22,1.59,11.72,4.8,22.87,11.98,32.52,1.31,1.76,1.03,2.69-.79,3.79-5.49,3.31-10.51,7.27-14.43,12.38-11.75,15.35-16.36,33.27-17.86,52.09-1.33,16.54,1.06,32.81,5.44,48.76,2.61,9.53,3.06,18.79-.65,28.18-1.76,4.44-1.6,9.29.49,13.63,4.19,8.74,8.69,17.34,13.1,25.97.22.44.3,1.17,1.25,1.17v-.03l2.97-.52c.3,2.62.96,5.24,2.06,7.83.7,1.65-.03,2.36-1.18,3.03.3.72.49,1.25.72,1.77,3.89,8.56,8.67,16.74,11.58,25.72,2.5,7.71,7.75,12.89,14.28,17.16,6.26,4.08,13.24,6.64,19.95,9.76.86.39,2.17.27,2.35,2.12-11.38-1.16-20.92-6.44-30.65-12.66.23,1.12.29,1.57.44,2,4.37,12.63,10.83,24.05,19.77,34.03.67.75,1.31,1.68,2.85,1.57,2.08-1.53,2.37-4.66,5.03-5.92.68,1.8-.19,3.08-.74,4.3-.98,2.17-.78,4.15.65,5.9,3.22,3.95,6.98,7.22,12.11,8.49,1.75.44,2.16-.61,2.25-2.04.11-1.67.16-3.38,2.24-5.5.08,13.28,8.15,20.66,17.31,27.57,1-1.17,1.19-2.39,1.54-3.55Zm-36.77-407.22c-12,8.69-22.55,23.35-22.19,31.41.99-1.77,1.82-3.11,2.51-4.54,2.57-5.23,5.73-10.04,9.69-14.34,10.84-11.84,24.52-18.22,40.05-21.16,11.28-2.15,22.65-1.92,34.04-1.64,1.08.02,2.23.33,3.34-.29-12.14-4.9-46.38-4.39-67.43,10.56Zm222.18,225.6c-5.07,19.16,6.26,37.86,21.15,39.73-1.26-.42-2.32-1.18-3.41-1.88-9.32-5.94-14.36-14.6-16.45-25.74-.44-4.04-.86-8.07-1.3-12.1Zm-299.4-42.47c-.62.87-.82,1.16-1.17,1.75-.54,1.01-1.08,2.01-1.63,3.02-4.01,7.45-10.02,10.88-18.58,9.45-2.03-.35-4.12-.35-6.82-.55,8.41,4.44,16.01,4.67,21.43.64,4.47-3.35,6.82-7.88,6.77-14.3Zm248.4-78.89c-12.92,7.13-25.54,13.99-40.18,5.57,5.72,6.03,12.79,6.81,20.78,5.99,7.1-.75,17.58-6.41,19.4-11.56Zm-118.1,12.9c-.99-13.03,1.7-25.3,7.5-36.96,7.01-14.08,20.87-24.59,40.22-22.7,2.79.28,5.69,1.27,8.8.25-1.69-1.49-1.77-1.52-3.61-2.04-6.18-1.74-12.43-1.57-18.62-.27-14.87,3.13-24.54,12.73-31.06,25.85-6.22,12.53-7.17,25.85-5.21,39.5.56,3.96,1.05,7.99,3.93,11.95-.71-5.48-1.73-10.22-1.95-15.59Zm-204.97,88.6c-.47,1.12-1.2,2.23-.7,4.29,3.93-9.32,10.08-15.77,17.74-21.11,11.27-7.86,23.36-14.21,35.68-20.2,5.35-2.61,10.7-5.25,16.04-7.87-11.33,3.75-22.1,8.71-33.29,13.82-4.96,2.18-9.82,4.58-14.45,7.39-9.45,5.72-16.72,13.39-21.03,23.67Z"
       style="fill: #e81e00;"
       id="path24" />
  </g>
  <metadata
     id="metadata1181">
    <rdf:RDF>
      <cc:License
         rdf:about="http://creativecommons.org/licenses/by-nc/4.0/">
        <cc:permits
           rdf:resource="http://creativecommons.org/ns#Reproduction" />
        <cc:permits
           rdf:resource="http://creativecommons.org/ns#Distribution" />
        <cc:requires
           rdf:resource="http://creativecommons.org/ns#Notice" />
        <cc:requires
           rdf:resource="http://creativecommons.org/ns#Attribution" />
        <cc:prohibits
           rdf:resource="http://creativecommons.org/ns#CommercialUse" />
        <cc:permits
           rdf:resource="http://creativecommons.org/ns#DerivativeWorks" />
      </cc:License>
      <cc:Work
         rdf:about="">
        <cc:license
           rdf:resource="http://creativecommons.org/licenses/by-nc/4.0/" />
        <dc:title>Joker's Iconic Head Image as SVG Cut File</dc:title>
        <dc:description>Unleash your creativity with our free Joker SVG cut file, optimized for Cricut and Silhouette machines. Download today.</dc:description>
        <dc:rights>
          <cc:Agent>
            <dc:title>https://www.templatesarea.com/license-agreement/</dc:title>
          </cc:Agent>
        </dc:rights>
        <dc:creator>
          <cc:Agent>
            <dc:title>templatesarea.com</dc:title>
          </cc:Agent>
        </dc:creator>
        <dc:publisher>
          <cc:Agent>
            <dc:title>templatesarea.com</dc:title>
          </cc:Agent>
        </dc:publisher>
      </cc:Work>
    </rdf:RDF>
  </metadata>
</svg>
