<?xml version="1.0" standalone="no"?>
<!DOCTYPE svg PUBLIC "-//W3C//DTD SVG 20010904//EN"
 "http://www.w3.org/TR/2001/REC-SVG-20010904/DTD/svg10.dtd">
<svg version="1.0" xmlns="http://www.w3.org/2000/svg"
 width="860.000000pt" height="757.000000pt" viewBox="0 0 860.000000 757.000000"
 preserveAspectRatio="xMidYMid meet">
<metadata>
Created by potrace 1.16, written by Peter Selinger 2001-2019
</metadata>
<g transform="translate(0.000000,757.000000) scale(0.100000,-0.100000)"
fill="#000000" stroke="none">
<path d="M3355 6819 c-808 -191 -1510 -358 -1560 -369 l-90 -21 -47 -78 -47
-78 197 -821 c109 -452 201 -824 204 -827 4 -4 59 39 122 94 64 56 119 101
122 101 3 0 326 79 717 176 1643 405 1889 460 2107 471 98 5 126 3 193 -16 42
-11 83 -21 91 -21 10 0 -3 66 -49 258 -35 141 -106 437 -159 657 -117 484
-171 681 -199 728 -26 42 -93 97 -116 96 -9 -1 -677 -158 -1486 -350z m1565
-348 c61 -255 109 -465 107 -467 -4 -4 -2953 -714 -2966 -714 -7 0 -151 554
-207 794 -35 152 -34 154 51 183 96 32 633 166 1295 322 305 72 789 187 1075
254 450 107 521 121 527 108 4 -9 57 -225 118 -480z"/>
<path d="M4615 5269 c-247 -60 -769 -186 -1160 -280 -815 -197 -1084 -268
-1173 -309 -71 -33 -157 -110 -203 -181 -92 -143 -102 -366 -25 -526 49 -101
113 -181 281 -353 l151 -155 79 -270 c43 -148 80 -272 81 -274 3 -3 1214 280
1939 454 539 129 911 223 951 240 32 13 34 17 34 61 0 25 -16 114 -37 198 -58
243 -57 259 73 726 80 286 -30 595 -248 698 -58 28 -248 83 -280 81 -7 0 -215
-50 -463 -110z m614 -119 c71 -19 143 -87 191 -180 67 -129 -5 -315 -152 -395
-68 -37 -180 -46 -257 -20 -69 22 -151 99 -182 167 -53 118 -21 268 77 358 87
80 193 103 323 70z m-651 -152 c30 -33 72 -169 157 -513 108 -437 164 -721
150 -765 -8 -25 -54 -50 -93 -50 -35 0 -80 33 -94 69 -27 69 -123 428 -182
677 -109 463 -114 517 -56 576 36 36 87 38 118 6z m-381 -94 c54 -34 85 -121
188 -537 154 -618 165 -714 83 -771 -34 -24 -94 -20 -123 8 -37 37 -121 327
-228 791 -73 316 -86 402 -67 458 24 68 86 90 147 51z m-389 -81 c11 -10 31
-54 46 -98 75 -237 232 -866 272 -1089 19 -108 4 -136 -71 -136 -48 0 -99 29
-118 67 -65 126 -249 917 -264 1133 l-6 86 32 27 c37 31 80 35 109 10z m-394
-87 c69 -29 96 -97 186 -461 152 -618 180 -784 142 -843 -16 -24 -88 -34 -127
-18 -64 27 -103 138 -209 598 -137 592 -147 698 -73 728 31 12 43 12 81 -4z
m-359 -106 c50 -31 72 -89 155 -420 139 -556 186 -797 164 -855 -9 -22 -56
-45 -93 -45 -57 0 -79 18 -105 89 -81 215 -247 902 -271 1126 -7 56 -5 63 20
93 32 38 80 43 130 12z m-448 -105 c68 -20 144 -89 180 -163 24 -48 28 -70 28
-137 0 -137 -50 -222 -163 -277 -59 -30 -75 -33 -152 -33 -108 0 -171 26 -235
97 -57 64 -78 127 -73 221 6 121 68 217 172 266 88 41 165 49 243 26z m2636
-199 c37 -15 84 -66 93 -100 9 -38 -15 -107 -50 -142 -61 -61 -155 -69 -216
-17 -63 53 -75 111 -37 184 41 76 130 109 210 75z m-2413 -581 c46 -24 82 -79
87 -133 6 -60 -24 -108 -87 -139 -149 -76 -282 54 -209 204 35 73 136 106 209
68z"/>
<path d="M6300 5149 c-306 -63 -557 -131 -566 -152 -4 -12 21 -215 28 -222 1
-2 120 25 263 60 143 34 331 80 418 101 l158 37 -6 31 c-12 56 -54 132 -80
144 -30 14 -150 14 -215 1z"/>
<path d="M6856 4499 c-30 -24 -27 -35 32 -106 62 -76 118 -97 191 -72 19 7 31
18 31 29 0 29 -86 116 -142 144 -63 31 -78 32 -112 5z"/>
<path d="M6503 4474 c-49 -24 -43 -50 32 -132 88 -98 90 -103 70 -162 -9 -27
-15 -64 -13 -82 3 -31 6 -33 45 -36 27 -2 59 4 87 17 49 21 72 55 99 147 l15
52 -87 90 c-113 119 -171 144 -248 106z"/>
<path d="M6155 4392 c-44 -28 -58 -48 -51 -77 9 -36 88 -115 115 -115 41 0
153 33 158 47 7 18 -71 119 -110 144 -40 24 -74 24 -112 1z"/>
<path d="M7040 4228 c-33 -17 -51 -35 -67 -68 -35 -68 -31 -93 23 -146 78 -75
135 -92 219 -64 40 13 43 26 16 72 -11 18 -30 69 -42 113 -12 44 -25 88 -31
98 -12 24 -64 22 -118 -5z"/>
<path d="M5836 4201 c-32 -35 -35 -74 -15 -173 10 -51 18 -112 19 -135 0 -23
4 -44 9 -47 17 -11 112 16 140 40 30 25 61 113 61 171 0 33 -58 116 -102 147
-31 22 -91 21 -112 -3z"/>
<path d="M6342 4171 c-66 -23 -95 -49 -132 -125 -49 -97 -36 -186 34 -232 22
-14 34 -15 91 -5 127 22 136 34 84 106 -35 49 -36 72 -3 188 16 59 17 69 4 77
-19 12 -16 13 -78 -9z"/>
<path d="M1605 4021 c-498 -120 -501 -121 -491 -274 2 -43 7 -81 10 -84 12
-12 744 161 803 189 35 17 34 41 -8 150 -25 65 -34 78 -52 77 -12 0 -130 -26
-262 -58z"/>
<path d="M6680 4009 c-113 -18 -110 -11 -37 -92 92 -103 92 -103 66 -188 -17
-55 -19 -73 -9 -79 16 -10 83 6 147 35 59 27 81 60 90 135 6 48 5 49 -53 111
-55 58 -106 91 -136 88 -7 -1 -38 -5 -68 -10z"/>
<path d="M7220 3873 c-69 -18 -94 -42 -120 -110 -30 -80 -27 -97 30 -158 69
-72 96 -82 174 -66 33 7 64 15 67 17 10 6 -74 334 -86 333 -5 0 -35 -7 -65
-16z"/>
<path d="M5916 3775 c-27 -8 -56 -20 -64 -28 -35 -36 33 -56 112 -33 65 19 92
41 75 62 -14 17 -58 17 -123 -1z"/>
<path d="M4137 3160 c-1297 -312 -2361 -570 -2363 -573 -5 -5 113 -447 121
-455 7 -7 4707 1126 4719 1138 10 10 -96 453 -109 456 -6 1 -1071 -254 -2368
-566z"/>
<path d="M6753 3573 c-35 -8 -63 -18 -63 -22 0 -3 25 -31 56 -61 81 -80 88
-97 69 -169 -18 -69 -19 -97 -5 -106 18 -11 146 33 179 61 37 31 76 141 62
177 -5 13 -37 49 -71 80 -59 55 -63 57 -113 56 -29 0 -80 -7 -114 -16z"/>
<path d="M7278 3475 c-32 -18 -68 -105 -76 -182 -4 -52 -4 -52 51 -110 52 -54
59 -58 99 -57 43 1 148 30 148 41 0 3 -11 29 -25 57 -14 29 -32 90 -40 136
-26 143 -18 130 -78 130 -28 -1 -64 -7 -79 -15z"/>
<path d="M1986 3321 l-28 -30 22 -36 c36 -58 115 -115 159 -115 47 0 101 18
101 34 0 29 -179 176 -215 176 -6 0 -24 -13 -39 -29z"/>
<path d="M1644 3309 c-17 -5 -37 -16 -45 -25 -17 -20 2 -56 71 -137 58 -68 66
-90 51 -143 -15 -54 -14 -99 3 -113 20 -16 128 5 161 31 26 20 55 101 55 153
0 39 -37 93 -111 159 -50 45 -120 87 -144 85 -5 0 -24 -5 -41 -10z"/>
<path d="M1284 3230 c-30 -12 -64 -58 -64 -88 0 -32 67 -98 110 -107 30 -7
190 22 190 34 0 20 -125 141 -160 155 -45 18 -47 18 -76 6z"/>
<path d="M6865 3143 c-33 -9 -62 -17 -64 -19 -2 -2 23 -34 56 -71 33 -37 63
-75 66 -85 3 -9 -1 -47 -9 -85 -20 -97 -20 -96 22 -88 20 3 65 15 101 26 63
20 65 22 90 75 14 31 27 73 30 95 6 39 4 43 -60 105 -65 63 -67 64 -119 63
-29 -1 -80 -8 -113 -16z"/>
<path d="M6420 3082 c-46 -23 -49 -51 -11 -94 31 -35 85 -58 138 -58 32 0 122
27 138 41 11 11 -66 93 -107 115 -37 19 -116 18 -158 -4z"/>
<path d="M2197 3069 c-77 -19 -95 -31 -114 -76 -33 -80 -5 -154 65 -173 34 -9
158 2 171 15 5 5 -39 224 -48 241 -4 7 -27 5 -74 -7z"/>
<path d="M965 3029 c-54 -49 -54 -57 -21 -234 l22 -120 44 3 c63 4 101 29 128
84 37 74 39 119 9 170 -34 58 -105 138 -123 138 -8 0 -35 -19 -59 -41z"/>
<path d="M7409 3055 c-25 -8 -54 -24 -64 -34 -17 -20 -55 -138 -55 -174 0 -26
77 -104 116 -117 25 -9 53 -9 106 0 40 6 73 12 75 14 1 1 -11 36 -29 77 -24
57 -32 94 -36 161 l-5 88 -31 -1 c-17 0 -52 -7 -77 -14z"/>
<path d="M1457 2999 c-88 -21 -116 -56 -151 -194 -18 -66 -12 -89 41 -153 50
-61 71 -67 169 -47 44 9 87 20 94 25 9 6 -2 27 -44 80 -63 81 -65 91 -39 193
25 96 10 115 -70 96z"/>
<path d="M6048 2993 c-21 -8 -38 -22 -38 -30 0 -9 17 -52 37 -97 34 -74 37
-88 37 -173 0 -51 3 -93 6 -93 35 0 161 47 183 68 36 34 62 119 47 156 -23 62
-167 187 -214 185 -12 0 -38 -7 -58 -16z"/>
<path d="M5695 2915 c-71 -18 -564 -137 -1095 -265 -1557 -373 -1908 -463
-1925 -490 -3 -5 17 -57 45 -115 40 -82 55 -105 68 -101 79 24 521 108 572
109 56 2 76 -3 147 -36 163 -75 243 -85 331 -41 57 28 138 112 205 211 33 50
50 65 79 73 20 6 225 55 455 111 1021 245 1329 326 1339 354 3 8 0 31 -6 52
-17 54 -72 173 -79 172 -3 0 -64 -16 -136 -34z"/>
<path d="M6637 2870 c-110 -29 -119 -38 -163 -161 l-26 -72 63 -63 c81 -81
103 -89 193 -66 98 24 102 38 38 106 -29 30 -52 61 -52 68 0 7 11 55 25 106
14 51 25 95 25 98 0 8 -34 2 -103 -16z"/>
<path d="M1790 2837 c-93 -21 -101 -37 -45 -86 41 -36 38 -35 130 -16 98 21
120 52 63 89 -34 22 -86 26 -148 13z"/>
<path d="M6955 2733 c-33 -9 -62 -18 -64 -20 -3 -2 13 -22 35 -46 113 -119
117 -129 87 -224 -23 -72 -14 -80 67 -63 87 18 120 44 148 113 42 106 42 105
-36 185 l-69 72 -54 -1 c-30 -1 -81 -8 -114 -16z"/>
<path d="M7497 2644 c-58 -18 -78 -47 -102 -146 -21 -82 -13 -110 46 -163 44
-40 69 -43 147 -20 60 18 63 27 36 129 -9 33 -19 95 -23 136 -6 71 -7 75 -31
77 -14 1 -47 -5 -73 -13z"/>
<path d="M1023 2599 c-48 -14 -54 -33 -32 -114 11 -38 23 -106 27 -150 l7 -80
40 3 c96 8 145 51 180 160 22 65 12 94 -51 152 -39 36 -49 40 -91 39 -27 0
-63 -5 -80 -10z"/>
<path d="M1515 2555 c-22 -8 -50 -25 -61 -39 -22 -25 -64 -163 -64 -211 0 -35
73 -109 115 -117 28 -6 201 25 214 37 3 4 -7 18 -24 32 -16 14 -47 41 -69 60
l-38 35 26 87 c37 122 36 131 -16 131 -24 -1 -61 -7 -83 -15z"/>
<path d="M6158 2561 c-26 -4 -50 -10 -53 -13 -4 -3 5 -29 20 -57 14 -28 37
-95 51 -149 36 -134 35 -132 98 -132 92 0 144 54 145 152 1 52 -10 77 -69 146
-50 61 -52 62 -98 61 -26 -1 -68 -5 -94 -8z"/>
<path d="M6764 2470 c-65 -13 -111 -36 -130 -65 -23 -36 -54 -131 -54 -169 0
-76 95 -156 184 -156 55 0 122 15 131 30 3 4 -17 37 -45 71 -58 72 -60 87 -29
197 11 40 18 80 15 88 -6 15 -12 16 -72 4z"/>
<path d="M7080 2304 c-36 -9 -71 -17 -78 -19 -8 -3 11 -33 53 -82 36 -42 68
-88 72 -101 3 -13 -2 -50 -12 -82 -25 -83 -16 -91 85 -69 71 15 104 46 124
117 26 93 22 116 -26 169 -41 44 -107 83 -138 82 -8 0 -44 -7 -80 -15z"/>
<path d="M7555 2250 c-34 -13 -45 -34 -67 -123 -24 -100 -20 -150 20 -228 34
-67 53 -79 90 -59 54 30 67 78 66 243 -1 100 -6 152 -14 162 -13 16 -62 19
-95 5z"/>
<path d="M1100 2188 c-25 -6 -47 -12 -49 -13 -5 -6 70 -319 79 -329 5 -4 32 0
62 9 88 29 148 110 148 202 0 24 -13 42 -59 86 -65 62 -83 67 -181 45z"/>
<path d="M6287 2140 c-53 -16 -60 -28 -37 -66 12 -18 32 -76 44 -128 13 -52
27 -100 31 -106 10 -16 74 -6 132 20 34 15 48 29 63 62 31 68 26 92 -27 149
-26 28 -60 57 -75 65 -30 15 -87 17 -131 4z"/>
<path d="M1622 2121 c-73 -25 -89 -43 -117 -134 l-26 -80 21 -43 c30 -61 92
-114 133 -114 33 0 174 34 185 44 3 3 -22 35 -56 70 -34 35 -62 71 -62 80 0 9
9 42 19 73 19 56 25 84 22 111 -2 17 -57 15 -119 -7z"/>
<path d="M2403 2121 c-87 -25 -98 -35 -75 -73 30 -53 91 -98 132 -98 52 0 140
28 147 47 7 19 -21 75 -58 114 -32 34 -56 36 -146 10z"/>
<path d="M6818 2024 c-60 -18 -90 -55 -122 -150 l-26 -77 63 -86 c82 -111 111
-131 194 -131 79 0 103 11 103 49 0 32 -21 63 -93 137 l-49 52 25 78 c25 75
31 104 28 132 -1 16 -63 15 -123 -4z"/>
<path d="M1951 2012 c-30 -10 -56 -22 -58 -28 -2 -5 26 -42 61 -82 88 -97 89
-99 80 -192 -8 -94 -3 -99 78 -80 98 24 188 147 159 219 -7 16 -48 63 -91 105
-76 74 -79 76 -126 75 -27 0 -73 -8 -103 -17z"/>
<path d="M2541 1885 c-24 -7 -54 -24 -67 -36 -30 -28 -64 -118 -64 -169 0 -34
7 -47 48 -90 41 -43 54 -50 86 -50 32 0 155 26 164 35 1 1 -14 35 -35 76 -35
68 -38 80 -38 159 0 83 0 85 -25 87 -14 1 -45 -4 -69 -12z"/>
<path d="M7185 1891 c-82 -21 -92 -46 -49 -127 52 -98 85 -112 190 -78 92 31
102 61 42 130 -60 68 -117 92 -183 75z"/>
<path d="M1225 1785 c-5 -2 -29 -9 -52 -15 -24 -6 -43 -17 -43 -24 0 -8 11
-36 25 -63 24 -46 39 -106 51 -205 6 -55 7 -56 98 -28 74 23 98 48 136 143
l24 57 -55 56 c-30 31 -66 62 -81 70 -25 13 -79 18 -103 9z"/>
<path d="M6351 1751 c-22 -6 -20 -9 33 -59 63 -60 144 -102 197 -102 75 0 68
41 -20 123 -50 47 -50 47 -118 46 -37 -1 -79 -4 -92 -8z"/>
<path d="M1755 1696 c-83 -21 -111 -40 -138 -98 -53 -112 -46 -149 42 -231 39
-36 58 -47 83 -47 29 0 141 23 177 35 9 4 -7 27 -48 70 -70 75 -72 85 -39 186
32 100 23 110 -77 85z"/>
<path d="M2105 1563 c-54 -16 -75 -29 -75 -47 0 -6 24 -39 54 -73 30 -35 57
-71 60 -81 3 -10 -5 -55 -18 -100 -13 -45 -23 -82 -22 -82 1 0 42 13 91 30
102 35 128 55 149 118 27 77 22 113 -24 165 -76 86 -118 100 -215 70z"/>
<path d="M2630 1474 c-68 -15 -92 -42 -120 -130 -25 -81 -25 -101 -2 -137 48
-72 128 -96 208 -62 41 17 40 7 14 185 -6 47 -14 99 -16 117 -6 39 -16 43 -84
27z"/>
<path d="M1293 1389 c-70 -16 -72 -28 -24 -122 39 -73 43 -88 45 -157 l1 -75
63 2 c106 4 133 28 167 147 l17 58 -43 45 c-91 93 -149 119 -226 102z"/>
<path d="M1837 1275 c-65 -24 -94 -52 -116 -111 -12 -30 -21 -75 -21 -99 0
-40 6 -50 57 -106 l57 -61 62 5 c76 7 114 24 114 50 0 12 -18 42 -40 68 -22
26 -40 56 -40 66 0 10 9 47 20 83 11 36 20 77 20 93 0 25 -3 27 -37 26 -21 0
-55 -7 -76 -14z"/>
<path d="M2265 1143 c-81 -17 -155 -36 -155 -40 0 -3 27 -34 60 -69 33 -36 63
-76 66 -91 4 -15 0 -63 -8 -107 -9 -45 -15 -82 -14 -83 4 -4 143 35 165 46 29
16 60 85 68 150 4 40 1 56 -16 84 -23 37 -95 107 -110 107 -5 0 -15 2 -23 4
-7 2 -22 2 -33 -1z"/>
<path d="M2693 1081 c-53 -25 -70 -51 -89 -142 -42 -201 57 -366 144 -239 37
55 43 98 35 252 -9 163 -11 165 -90 129z"/>
<path d="M1420 967 c-24 -8 -36 -19 -38 -35 -4 -24 45 -252 58 -273 6 -9 20
-9 61 1 115 27 142 55 143 151 1 43 -3 52 -39 89 -39 40 -108 81 -136 79 -8 0
-30 -5 -49 -12z"/>
<path d="M1970 860 c-86 -23 -122 -53 -141 -122 -19 -70 -15 -121 16 -183 53
-109 110 -155 191 -155 47 0 134 34 134 53 0 5 -30 46 -68 91 -37 44 -73 88
-79 97 -10 12 -6 37 21 127 38 128 43 122 -74 92z"/>
<path d="M2315 713 c-84 -19 -95 -24 -95 -44 0 -31 59 -137 89 -161 51 -40
192 -1 207 57 7 27 -6 54 -53 113 -32 39 -38 42 -81 41 -26 -1 -56 -3 -67 -6z"/>
<path d="M1520 582 c-48 -24 -49 -46 -3 -91 57 -57 204 -95 219 -57 7 19 -43
93 -91 134 -41 37 -74 40 -125 14z"/>
</g>
</svg>
